<?xml version="1.0" encoding="UTF-8" standalone="no"?>
<!-- Created with Inkscape (http://www.inkscape.org/) -->

<svg
   version="1.1"
   id="svg1"
   width="442.66666"
   height="398.39999"
   viewBox="0 0 442.66666 398.39999"
   sodipodi:docname="upload_ou5nsfnq5rmnrnud7xehpdqjrx.pdf"
   xmlns:inkscape="http://www.inkscape.org/namespaces/inkscape"
   xmlns:sodipodi="http://sodipodi.sourceforge.net/DTD/sodipodi-0.dtd"
   xmlns="http://www.w3.org/2000/svg"
   xmlns:svg="http://www.w3.org/2000/svg">
  <defs
     id="defs1">
    <clipPath
       clipPathUnits="userSpaceOnUse"
       id="clipPath4">
      <path
         d="M 10.8,35.969064 H 305.2 V 249.8 H 10.8 Z"
         id="path4" />
    </clipPath>
    <clipPath
       clipPathUnits="userSpaceOnUse"
       id="clipPath6">
      <path
         d="M 10.8,35.969064 H 305.2 V 249.8 H 10.8 Z"
         id="path6" />
    </clipPath>
    <clipPath
       clipPathUnits="userSpaceOnUse"
       id="clipPath21">
      <path
         d="M 10.8,35.969064 H 305.2 V 249.8 H 10.8 Z"
         id="path21" />
    </clipPath>
    <clipPath
       clipPathUnits="userSpaceOnUse"
       id="clipPath24">
      <path
         d="M 10.8,35.969064 H 305.2 V 249.8 H 10.8 Z"
         id="path24" />
    </clipPath>
    <clipPath
       clipPathUnits="userSpaceOnUse"
       id="clipPath27">
      <path
         d="M 10.8,35.969064 H 305.2 V 249.8 H 10.8 Z"
         id="path27" />
    </clipPath>
    <clipPath
       clipPathUnits="userSpaceOnUse"
       id="clipPath30">
      <path
         d="M 10.8,35.969064 H 305.2 V 249.8 H 10.8 Z"
         id="path30" />
    </clipPath>
    <clipPath
       clipPathUnits="userSpaceOnUse"
       id="clipPath33">
      <path
         d="M 10.8,35.969064 H 305.2 V 249.8 H 10.8 Z"
         id="path33" />
    </clipPath>
    <clipPath
       clipPathUnits="userSpaceOnUse"
       id="clipPath36">
      <path
         d="M 10.8,35.969064 H 305.2 V 249.8 H 10.8 Z"
         id="path36" />
    </clipPath>
    <clipPath
       clipPathUnits="userSpaceOnUse"
       id="clipPath40">
      <path
         d="M 10.8,35.969064 H 305.2 V 249.8 H 10.8 Z"
         id="path40" />
    </clipPath>
    <clipPath
       clipPathUnits="userSpaceOnUse"
       id="clipPath42">
      <path
         d="M 10.8,35.969064 H 305.2 V 249.8 H 10.8 Z"
         id="path42" />
    </clipPath>
  </defs>
  <sodipodi:namedview
     id="namedview1"
     pagecolor="#ffffff"
     bordercolor="#000000"
     borderopacity="0.25"
     inkscape:showpageshadow="2"
     inkscape:pageopacity="0.0"
     inkscape:pagecheckerboard="0"
     inkscape:deskcolor="#d1d1d1">
    <inkscape:page
       x="0"
       y="0"
       inkscape:label="1"
       id="page1"
       width="442.66666"
       height="398.39999"
       margin="0"
       bleed="0" />
  </sodipodi:namedview>
  <g
     id="g1"
     inkscape:groupmode="layer"
     inkscape:label="1">
    <path
       id="path1"
       d="M 0,0 H 332 V 298.8 H 0 Z"
       style="fill:#ffffff;fill-opacity:1;fill-rule:nonzero;stroke:none"
       transform="matrix(1.3333333,0,0,-1.3333333,0,398.4)" />
    <path
       id="path2"
       d="M 10.8,35.969064 H 305.2 V 249.8 H 10.8 Z"
       style="fill:#ffffff;fill-opacity:1;fill-rule:nonzero;stroke:none"
       transform="matrix(1.3333333,0,0,-1.3333333,0,398.4)" />
    <path
       id="path3"
       d="m 24.181818,45.750025 v -0.06137 l 53.527273,57.168695 53.527269,19.66991 53.52728,9.62067 53.52727,20.96308 53.52727,82.49421 v 4.47519 0 l -53.52727,-83.38624 -53.52727,-22.81542 -53.52728,-8.11051 -53.527269,-20.30343 z"
       style="fill:#056fa1;fill-opacity:0.25;fill-rule:nonzero;stroke:none"
       transform="matrix(1.3333333,0,0,-1.3333333,0,398.4)"
       clip-path="url(#clipPath4)" />
    <path
       id="path5"
       d="M 24.181818,52.363814 V 50.94019 l 53.527273,-0.123434 53.527269,0.05379 53.52728,0.0064 53.52727,0.08248 53.52727,-0.04878 v 0.268845 0 l -53.52727,1.2215 -53.52727,-1.331725 -53.52728,1.318956 -53.527269,-0.316232 -53.527273,0.291843 z"
       style="fill:#e0b266;fill-opacity:0.25;fill-rule:nonzero;stroke:none"
       transform="matrix(1.3333333,0,0,-1.3333333,0,398.4)"
       clip-path="url(#clipPath6)" />
    <path
       id="path7"
       d="m 24.181818,35.969064 v -3.5"
       style="fill:#221f21;fill-opacity:1;fill-rule:nonzero;stroke:#221f21;stroke-width:0.8;stroke-linecap:butt;stroke-linejoin:round;stroke-miterlimit:10;stroke-dasharray:none;stroke-opacity:1"
       transform="matrix(1.3333333,0,0,-1.3333333,0,398.4)" />
    <path
       id="path8"
       d="M 2.2389924,-4.7236784 H 2.0866486 c -0.4570312,0.421875 -1.03125,0.4453125 -1.44140621,0.4570312 v 0.4453125 c 0.26953125,-0.011719 0.62109371,-0.023437 0.96093751,-0.1640625 v 3.55078128 H 0.68039864 v 0.43359375 H 3.1647736 V -0.43461592 H 2.2389924 Z m 0,0"
       style="fill:#000000;fill-opacity:1;fill-rule:nonzero;stroke:none"
       aria-label="1"
       transform="matrix(1.3333333,0,0,1.3333333,29.772489,366.23183)" />
    <path
       id="path9"
       d="m 77.709091,35.969064 v -3.5"
       style="fill:#221f21;fill-opacity:1;fill-rule:nonzero;stroke:#221f21;stroke-width:0.8;stroke-linecap:butt;stroke-linejoin:round;stroke-miterlimit:10;stroke-dasharray:none;stroke-opacity:1"
       transform="matrix(1.3333333,0,0,-1.3333333,0,398.4)" />
    <path
       id="path10"
       d="m 2.3777353,-2.4736784 c 0.46875,-0.140625 0.9023437,-0.515625 0.9023437,-1.03125 0,-0.6328125 -0.609375,-1.21875 -1.4296875,-1.21875 -0.8320312,0 -1.44140621,0.5859375 -1.44140621,1.21875 0,0.5273437 0.45703125,0.890625 0.90234371,1.03125 -0.60937496,0.1875 -1.00781246,0.6679687 -1.00781246,1.2070312 0,0.73828128 0.66796875,1.40625003 1.54687496,1.40625003 0.8789063,0 1.5351563,-0.66796875 1.5351563,-1.40625003 0,-0.5390625 -0.3984375,-1.0195312 -1.0078125,-1.2070312 z M 1.8503915,-2.6963347 c -0.5039062,0 -0.90234371,-0.2929687 -0.90234371,-0.796875 0,-0.4453125 0.31640621,-0.796875 0.90234371,-0.796875 0.5742188,0 0.890625,0.3515625 0.890625,0.796875 0,0.4921875 -0.3867187,0.796875 -0.890625,0.796875 z m 0,2.37890628 c -0.4804687,0 -0.91406246,-0.3046875 -0.91406246,-0.96093748 0,-0.6210938 0.41015626,-0.9609375 0.91406246,-0.9609375 0.5039063,0 0.9023438,0.3398437 0.9023438,0.9609375 0,0.65624998 -0.4335938,0.96093748 -0.9023438,0.96093748 z m 0,0"
       style="fill:#000000;fill-opacity:1;fill-rule:nonzero;stroke:none"
       aria-label="8"
       transform="matrix(1.3333333,0,0,1.3333333,101.14219,366.23183)" />
    <path
       id="path11"
       d="m 131.23636,35.969064 v -3.5"
       style="fill:#221f21;fill-opacity:1;fill-rule:nonzero;stroke:#221f21;stroke-width:0.8;stroke-linecap:butt;stroke-linejoin:round;stroke-miterlimit:10;stroke-dasharray:none;stroke-opacity:1"
       transform="matrix(1.3333333,0,0,-1.3333333,0,398.4)" />
    <path
       id="path12"
       d="m 0.70389032,-3.5752409 c 0.28125,-0.5625 0.78515628,-0.7148438 1.11328128,-0.7148438 0.4101562,0 0.7265625,0.234375 0.7265625,0.6328125 0,0.375 -0.2578125,0.8203125 -0.7851563,0.9140625 -0.035156,0.011719 -0.058594,0.011719 -0.5273437,0.046875 v 0.4570313 h 0.5507812 c 0.65625,0 0.9023438,0.5273437 0.9023438,0.9609375 0,0.55078123 -0.328125,0.96093748 -0.8789063,0.96093748 -0.4921875,0 -1.05468748,-0.234375 -1.40624998,-0.6796875 l -0.09375,0.45703125 c 0.41015625,0.4453125 0.97265628,0.6796875 1.51171878,0.6796875 0.9140625,0 1.5703125,-0.6796875 1.5703125,-1.40625003 0,-0.5742187 -0.4570313,-1.03125 -1.0078125,-1.1953125 0.5273437,-0.2695312 0.796875,-0.7382812 0.796875,-1.1953125 0,-0.5859375 -0.5976563,-1.0664062 -1.3476563,-1.0664062 -0.609375,0 -1.12499998,0.328125 -1.41796873,0.7382812 z m 4.96874998,3.03515623 c -0.082031,0 -0.1640625,0.0117188 -0.2460937,0.0117188 h -0.796875 l 1.078125,-0.96093743 c 0.1289062,-0.1054688 0.46875,-0.3632813 0.609375,-0.4804688 0.3046875,-0.28125 0.7148437,-0.6445312 0.7148437,-1.2421875 0,-0.796875 -0.5859375,-1.5117187 -1.5820312,-1.5117187 -0.7382813,0 -1.2070313,0.3984375 -1.4414063,1.1132812 l 0.328125,0.4101563 c 0.1640625,-0.5859375 0.4101563,-1.0429688 1.0078125,-1.0429688 0.5859375,0 1.03125,0.4101563 1.03125,1.0429687 0,0.5742187 -0.3398437,0.9023437 -0.75,1.3007813 -0.140625,0.140625 -0.515625,0.4570312 -0.6679687,0.5976562 -0.1992188,0.1757813 -0.6796875,0.64453128 -0.8789063,0.82031253 v 0.48046875 h 2.953125 v -0.5390625 z m 0,0"
       style="fill:#000000;fill-opacity:1;fill-rule:nonzero;stroke:none"
       aria-label="32"
       transform="matrix(1.3333333,0,0,1.3333333,170.04195,366.23183)" />
    <path
       id="path13"
       d="m 184.76364,35.969064 v -3.5"
       style="fill:#221f21;fill-opacity:1;fill-rule:nonzero;stroke:#221f21;stroke-width:0.8;stroke-linecap:butt;stroke-linejoin:round;stroke-miterlimit:10;stroke-dasharray:none;stroke-opacity:1"
       transform="matrix(1.3333333,0,0,-1.3333333,0,398.4)" />
    <path
       id="path14"
       d="M 2.2380532,-4.7236784 H 2.0857094 c -0.4570312,0.421875 -1.03125,0.4453125 -1.44140624,0.4570312 v 0.4453125 c 0.26953125,-0.011719 0.62109374,-0.023437 0.96093754,-0.1640625 v 3.55078128 H 0.67945941 v 0.43359375 H 3.1638344 V -0.43461592 H 2.2380532 Z m 3.4335937,4.18359373 c -0.082031,0 -0.1640625,0.0117188 -0.2460937,0.0117188 h -0.796875 l 1.078125,-0.96093743 c 0.1289062,-0.1054688 0.46875,-0.3632813 0.609375,-0.4804688 0.3046875,-0.28125 0.7148437,-0.6445312 0.7148437,-1.2421875 0,-0.796875 -0.5859375,-1.5117187 -1.5820312,-1.5117187 -0.7382813,0 -1.2070313,0.3984375 -1.4414063,1.1132812 l 0.328125,0.4101563 c 0.1640625,-0.5859375 0.4101563,-1.0429688 1.0078125,-1.0429688 0.5859375,0 1.03125,0.4101563 1.03125,1.0429687 0,0.5742187 -0.3398437,0.9023437 -0.75,1.3007813 -0.140625,0.140625 -0.515625,0.4570312 -0.6679687,0.5976562 -0.1992188,0.1757813 -0.6796875,0.64453128 -0.8789063,0.82031253 v 0.48046875 h 2.953125 v -0.5390625 z M 9.7849282,-2.4736784 c 0.4687498,-0.140625 0.9023438,-0.515625 0.9023438,-1.03125 0,-0.6328125 -0.609375,-1.21875 -1.4296876,-1.21875 -0.8320312,0 -1.4414062,0.5859375 -1.4414062,1.21875 0,0.5273437 0.4570312,0.890625 0.9023437,1.03125 -0.609375,0.1875 -1.0078125,0.6679687 -1.0078125,1.2070312 0,0.73828128 0.6679688,1.40625003 1.546875,1.40625003 0.8789066,0 1.5351566,-0.66796875 1.5351566,-1.40625003 0,-0.5390625 -0.398438,-1.0195312 -1.0078128,-1.2070312 z M 9.2575844,-2.6963347 c -0.5039062,0 -0.9023437,-0.2929687 -0.9023437,-0.796875 0,-0.4453125 0.3164062,-0.796875 0.9023437,-0.796875 0.5742188,0 0.8906246,0.3515625 0.8906246,0.796875 0,0.4921875 -0.3867183,0.796875 -0.8906246,0.796875 z m 0,2.37890628 c -0.4804687,0 -0.9140625,-0.3046875 -0.9140625,-0.96093748 0,-0.6210938 0.4101563,-0.9609375 0.9140625,-0.9609375 0.5039063,0 0.9023436,0.3398437 0.9023436,0.9609375 0,0.65624998 -0.4335936,0.96093748 -0.9023436,0.96093748 z m 0,0"
       style="fill:#000000;fill-opacity:1;fill-rule:nonzero;stroke:none"
       aria-label="128"
       transform="matrix(1.3333333,0,0,1.3333333,238.94171,366.23183)" />
    <path
       id="path15"
       d="m 238.29091,35.969064 v -3.5"
       style="fill:#221f21;fill-opacity:1;fill-rule:nonzero;stroke:#221f21;stroke-width:0.8;stroke-linecap:butt;stroke-linejoin:round;stroke-miterlimit:10;stroke-dasharray:none;stroke-opacity:1"
       transform="matrix(1.3333333,0,0,-1.3333333,0,398.4)" />
    <path
       id="path16"
       d="M 1.149257,-4.0908659 H 3.071132 V -4.5713347 H 0.586757 v 2.6015625 h 0.5039062 c 0.1757813,-0.375 0.5039063,-0.5390625 0.8085938,-0.5390625 0.2929687,0 0.7265625,0.1875 0.7265625,1.078125 0,0.91406253 -0.5859375,1.11328128 -0.9375,1.11328128 -0.4570313,0 -0.90234375,-0.24609375 -1.1484375,-0.64453125 l -0.2578125,0.421875 c 0.33984375,0.421875 0.8554687,0.6796875 1.40625,0.6796875 0.9257812,0 1.640625,-0.703125 1.640625,-1.55859373 0,-0.8671875 -0.6445313,-1.546875 -1.40625,-1.546875 -0.3046875,0 -0.5742188,0.09375 -0.7734375,0.2695312 z M 5.9422257,-4.7236784 H 5.789882 c -0.4570313,0.421875 -1.03125,0.4453125 -1.4414063,0.4570312 v 0.4453125 c 0.2695313,-0.011719 0.6210938,-0.023437 0.9609375,-0.1640625 v 3.55078128 H 4.383632 v 0.43359375 H 6.868007 V -0.43461592 H 5.9422257 Z m 3.4335938,4.18359373 c -0.082031,0 -0.1640625,0.0117188 -0.2460938,0.0117188 h -0.796875 l 1.078125,-0.96093743 c 0.1289063,-0.1054688 0.46875,-0.3632813 0.6093753,-0.4804688 0.304687,-0.28125 0.714843,-0.6445312 0.714843,-1.2421875 0,-0.796875 -0.585937,-1.5117187 -1.5820308,-1.5117187 -0.7382812,0 -1.2070312,0.3984375 -1.4414062,1.1132812 l 0.328125,0.4101563 c 0.1640625,-0.5859375 0.4101562,-1.0429688 1.0078125,-1.0429688 0.5859375,0 1.0312495,0.4101563 1.0312495,1.0429687 0,0.5742187 -0.3398433,0.9023437 -0.7499995,1.3007813 -0.140625,0.140625 -0.515625,0.4570312 -0.6679688,0.5976562 -0.1992187,0.1757813 -0.6796875,0.64453128 -0.8789062,0.82031253 v 0.48046875 h 2.9531245 v -0.5390625 z m 0,0"
       style="fill:#000000;fill-opacity:1;fill-rule:nonzero;stroke:none"
       aria-label="512"
       transform="matrix(1.3333333,0,0,1.3333333,310.31141,366.23183)" />
    <path
       id="path17"
       d="m 291.81818,35.969064 v -3.5"
       style="fill:#221f21;fill-opacity:1;fill-rule:nonzero;stroke:#221f21;stroke-width:0.8;stroke-linecap:butt;stroke-linejoin:round;stroke-miterlimit:10;stroke-dasharray:none;stroke-opacity:1"
       transform="matrix(1.3333333,0,0,-1.3333333,0,398.4)" />
    <path
       id="path18"
       d="m 1.9685761,-0.54008467 c -0.082031,0 -0.1640625,0.0117188 -0.2460938,0.0117188 H 0.92560734 L 2.0037323,-1.4893034 c 0.1289063,-0.1054688 0.46875,-0.3632813 0.609375,-0.4804688 0.3046875,-0.28125 0.7148438,-0.6445312 0.7148438,-1.2421875 0,-0.796875 -0.5859375,-1.5117187 -1.5820313,-1.5117187 -0.7382812,0 -1.20703121,0.3984375 -1.44140621,1.1132812 l 0.328125,0.4101563 c 0.1640625,-0.5859375 0.41015621,-1.0429688 1.00781251,-1.0429688 0.5859375,0 1.03125,0.4101563 1.03125,1.0429688 0,0.5742187 -0.3398438,0.9023437 -0.75,1.3007812 -0.140625,0.140625 -0.515625,0.4570313 -0.6679688,0.5976563 -0.1992187,0.1757812 -0.67968746,0.64453123 -0.87890621,0.82031248 v 0.48046875 H 3.3279511 v -0.5390625 z M 7.1013886,-2.2627409 c 0,-0.3398438 0,-1.1601563 -0.328125,-1.7226563 -0.3515625,-0.6328125 -0.890625,-0.7382812 -1.21875,-0.7382812 -0.3164063,0 -0.8671875,0.1054687 -1.2070313,0.703125 -0.3398437,0.5507812 -0.3515625,1.3125 -0.3515625,1.7578125 0,0.515625 0.023438,1.1484375 0.3164063,1.67578123 0.3164062,0.5625 0.8320312,0.7265625 1.2421875,0.7265625 0.6914062,0 1.078125,-0.3984375 1.2890625,-0.84375 C 7.0896698,-1.1963347 7.1013886,-1.8291472 7.1013886,-2.2627409 Z m -1.546875,1.94531248 c -0.2929688,0 -0.6328125,-0.1640625 -0.8085938,-0.66796875 -0.140625,-0.42187503 -0.140625,-0.86718753 -0.140625,-1.37109373 0,-0.6445313 0,-1.9101563 0.9492188,-1.9101563 0.9492187,0 0.9492187,1.265625 0.9492187,1.9101563 0,0.4570312 0,0.984375 -0.1757812,1.42968748 -0.1875,0.50390625 -0.5507813,0.609375 -0.7734375,0.609375 z M 10.171701,-1.1611784 h 0.726563 v -0.46875 H 10.171701 V -4.5713347 H 9.4802948 l -1.8632812,2.9414063 v 0.46875 h 1.9453125 v 1.16015623 h 0.6093749 z m -1.9687499,-0.46875 c 0.2109375,-0.328125 1.4179687,-2.1796875 1.4179687,-2.6015625 v 2.6015625 z m 5.2851559,-0.84375 c 0.46875,-0.140625 0.902344,-0.515625 0.902344,-1.03125 0,-0.6328125 -0.609375,-1.21875 -1.429687,-1.21875 -0.832032,0 -1.441407,0.5859375 -1.441407,1.21875 0,0.5273437 0.457032,0.890625 0.902344,1.03125 -0.609375,0.1875 -1.007812,0.6679687 -1.007812,1.2070312 0,0.73828128 0.667968,1.40625003 1.546875,1.40625003 0.878906,0 1.535156,-0.66796875 1.535156,-1.40625003 0,-0.5390625 -0.398438,-1.0195312 -1.007813,-1.2070312 z m -0.527343,-0.2226563 c -0.503907,0 -0.902344,-0.2929687 -0.902344,-0.796875 0,-0.4453125 0.316406,-0.796875 0.902344,-0.796875 0.574218,0 0.890625,0.3515625 0.890625,0.796875 0,0.4921875 -0.386719,0.796875 -0.890625,0.796875 z m 0,2.37890628 c -0.480469,0 -0.914063,-0.3046875 -0.914063,-0.96093748 0,-0.6210938 0.410156,-0.9609375 0.914063,-0.9609375 0.503906,0 0.902343,0.3398437 0.902343,0.9609375 0,0.65624998 -0.433593,0.96093748 -0.902343,0.96093748 z m 0,0"
       style="fill:#000000;fill-opacity:1;fill-rule:nonzero;stroke:none"
       aria-label="2048"
       transform="matrix(1.3333333,0,0,1.3333333,379.21117,366.23183)" />
    <path
       id="path19"
       d="M 0.87930484,-6.2223583 V 2.979549e-4 H 3.3402423 c 1.3359375,0 2.2851563,-0.8203125049 2.2851563,-1.6874999549 0,-0.796875 -0.8085938,-1.4179688 -1.7695313,-1.5703125 0.890625,-0.2226563 1.5117188,-0.75 1.5117188,-1.40625 0,-0.8203125 -0.9960938,-1.5585938 -2.2734375,-1.5585938 z m 0.80859376,2.6953125 v -2.1679687 h 1.1484375 c 0.9140625,0 1.78125,0.421875 1.78125,1.0546875 0,0.515625 -0.6328125,1.1132812 -1.8867188,1.1132812 z m 0,3 v -2.4140625 h 1.3125 c 0.9492187,0 1.8515625,0.5390625 1.8515625,1.2421875 0,0.6445313 -0.7851563,1.171875 -1.78125,1.171875 z m 8.1445312,-2.0625 c 0,-0.890625 -0.65625,-1.546875 -1.5351562,-1.546875 -0.5859375,0 -1.0195313,0.1523438 -1.453125,0.3984375 l 0.058594,0.6328125 c 0.4453125,-0.328125 0.890625,-0.4570312 1.3828125,-0.4570312 0.5039063,0 0.8085938,0.3984375 0.8085938,0.984375 v 0.375 c -1.546875,0.035156 -2.5546875,0.4335937 -2.5546875,1.1601562 0,0.421875 0.2695312,1.13671875 1.0546875,1.13671875 0.1757812,0 0.9609375,-0.01171875 1.5234375,-0.43359375 V 2.979549e-4 h 0.7148437 z m -0.7382812,1.3359375 c 0,0.1875 0,0.41015625 -0.328125,0.59765625 -0.2226563,0.140625 -0.515625,0.17578125 -0.703125,0.17578125 -0.4570313,0 -0.8320313,-0.22265625 -0.8320313,-0.5742187 0,-0.6445313 1.7460938,-0.6679688 1.8632813,-0.6679688 z M 12.17911,-3.421577 h 1.300781 v -0.5625 H 12.17911 v -1.1367188 h -0.65625 v 1.1367188 h -0.785157 v 0.5625 h 0.761719 v 2.296875 c 0,0.5273437 0.117188,1.21874995 0.761719,1.21874995 0.398437,0 0.867187,-0.0703125 1.371094,-0.328125 l -0.152344,-0.5625 c -0.234375,0.17578125 -0.550781,0.28125 -0.832031,0.28125 -0.351563,0 -0.46875,-0.3046875 -0.46875,-0.77343745 z m 5.484375,2.4492187 c -0.433594,0.3046875 -0.902344,0.45703125 -1.441407,0.45703125 -0.761718,0 -1.265625,-0.63281245 -1.265625,-1.48828125 0,-0.6796875 0.339844,-1.5234375 1.300782,-1.5234375 0.5625,0 0.855468,0.1171875 1.300781,0.421875 l 0.117187,-0.6328125 c -0.503906,-0.28125 -0.785156,-0.3984375 -1.429687,-0.3984375 -1.265625,0 -2.027344,1.078125 -2.027344,2.1445313 0,1.1132812 0.832031,2.08593745 1.992188,2.08593745 0.632812,0 1.101562,-0.1875 1.511718,-0.421875 z m 4.333007,-1.6875 c 0,-0.6679687 -0.175781,-1.4179687 -1.253906,-1.4179687 -0.515625,0 -0.996094,0.2460937 -1.324219,0.6445312 V -6.2223583 H 18.703524 V 2.979549e-4 h 0.738281 V -2.1911083 c 0,-0.5859375 0.234375,-1.3007812 0.914062,-1.3007812 0.902344,0 0.902344,0.6328125 0.902344,0.890625 V 2.979549e-4 h 0.738281 z m 5.997071,-1.1015625 c -0.457032,-0.1054687 -0.914063,-0.46875 -0.914063,-0.984375 0,-0.515625 0.492188,-1.03125 1.300781,-1.03125 0.644532,0 1.101563,0.1875 1.558594,0.5742188 l 0.152344,-0.7734375 C 29.634188,-6.1989208 29.212313,-6.421577 28.392,-6.421577 c -1.277344,0 -2.074219,0.890625 -2.074219,1.78125 0,0.234375 0.03516,0.5859375 0.339844,0.9960937 0.421875,0.5390625 0.996094,0.6796875 1.371094,0.7617188 0.117187,0.035156 0.679687,0.1757812 0.75,0.1992187 0.410156,0.1171875 0.855469,0.515625 0.855469,1.0664063 0,0.5976562 -0.503907,1.14843745 -1.300782,1.14843745 -0.726562,0 -1.40625,-0.26953125 -1.980468,-0.73828125 l -0.140625,0.78515625 c 0.878906,0.55078125 1.699218,0.62109375 2.121093,0.62109375 1.230469,0 2.0625,-0.9140625 2.0625,-1.9101562 0,-1.0195313 -0.832031,-1.6757813 -1.5,-1.8398438 z m 4.441406,-2.3671875 H 31.5795 v 0.8554688 h 0.855469 z m -0.07031,2.1445313 H 31.649813 V 2.979549e-4 h 0.714843 z m 4.423829,0.375 v -0.375 h -3.292969 v 0.5742187 h 1.265625 c 0.105469,0 0.210937,-0.011719 0.316406,-0.011719 h 0.691406 L 33.36661,-0.3864208 V 2.979549e-4 h 3.445312 V -0.58563955 h -1.347656 c -0.105469,0 -0.210938,0 -0.316406,0 h -0.761719 z m 4.151367,1.640625 c 0,-0.2695313 -0.01172,-0.9492188 -0.363282,-1.4882813 -0.375,-0.5625 -0.949218,-0.6796875 -1.289062,-0.6796875 -1.042969,0 -1.863281,0.9609375 -1.863281,2.109375 0,1.18359375 0.878906,2.12109375 1.992187,2.12109375 0.433594,0 0.949219,-0.10546875 1.476563,-0.43359375 l -0.05859,-0.62109375 c -0.5625,0.41015625 -1.089844,0.48046875 -1.40625,0.48046875 -0.738281,0 -1.3125,-0.65625 -1.347656,-1.4882812 z M 38.13907,-2.4957958 c 0.140625,-0.5742187 0.585938,-1.0546875 1.148438,-1.0546875 0.328125,0 0.9375,0.1523438 1.113281,1.0546875 z m 0,0"
       style="fill:#221f21;fill-opacity:1;fill-rule:nonzero;stroke:none"
       aria-label="BatchSize"
       transform="matrix(1.3333333,0,0,1.3333333,183.16353,381.67538)" />
    <path
       id="path20"
       d="M 10.8,45.438656 H 305.2"
       style="fill:none;stroke:#afc0ca;stroke-width:0.8;stroke-linecap:square;stroke-linejoin:round;stroke-miterlimit:10;stroke-dasharray:none;stroke-opacity:1"
       transform="matrix(1.3333333,0,0,-1.3333333,0,398.4)"
       clip-path="url(#clipPath21)" />
    <path
       id="path22"
       d="m 3.3979633,-2.2611891 c 0,-0.3398437 0,-1.1601562 -0.328125,-1.7226562 -0.3515625,-0.6328125 -0.890625,-0.7382813 -1.21875,-0.7382813 -0.3164062,0 -0.86718747,0.1054688 -1.20703122,0.703125 -0.33984375,0.5507813 -0.3515625,1.3125 -0.3515625,1.7578125 0,0.515625 0.0234375,1.1484375 0.31640625,1.6757813 0.31640625,0.5625 0.83203127,0.7265625 1.24218747,0.7265625 0.6914063,0 1.078125,-0.3984375 1.2890625,-0.84375 0.2460938,-0.4921875 0.2578125,-1.125 0.2578125,-1.5585938 z m -1.546875,1.94531255 c -0.2929687,0 -0.6328125,-0.1640625 -0.8085937,-0.66796875 -0.14062502,-0.421875 -0.14062502,-0.8671875 -0.14062502,-1.3710938 0,-0.6445312 0,-1.9101562 0.94921872,-1.9101562 0.9492188,0 0.9492188,1.265625 0.9492188,1.9101562 0,0.4570313 0,0.984375 -0.1757813,1.42968755 -0.1875,0.50390625 -0.5507812,0.609375 -0.7734375,0.609375 z m 3.1875,-0.31640625 H 4.4174946 V 5.296969e-4 H 5.0385883 Z M 9.157729,-2.2611891 c 0,-0.3398437 0,-1.1601562 -0.328125,-1.7226562 -0.3515625,-0.6328125 -0.890625,-0.7382813 -1.21875,-0.7382813 -0.3164063,0 -0.8671875,0.1054688 -1.2070313,0.703125 -0.3398437,0.5507813 -0.3515625,1.3125 -0.3515625,1.7578125 0,0.515625 0.023437,1.1484375 0.3164063,1.6757813 0.3164062,0.5625 0.8320312,0.7265625 1.2421875,0.7265625 0.6914062,0 1.078125,-0.3984375 1.2890625,-0.84375 0.2460937,-0.4921875 0.2578125,-1.125 0.2578125,-1.5585938 z m -1.546875,1.94531255 c -0.2929688,0 -0.6328125,-0.1640625 -0.8085938,-0.66796875 -0.140625,-0.421875 -0.140625,-0.8671875 -0.140625,-1.3710938 0,-0.6445312 0,-1.9101562 0.9492188,-1.9101562 0.9492187,0 0.9492187,1.265625 0.9492187,1.9101562 0,0.4570313 0,0.984375 -0.1757812,1.42968755 -0.1875,0.50390625 -0.5507813,0.609375 -0.7734375,0.609375 z m 0,0"
       style="fill:#000000;fill-opacity:1;fill-rule:nonzero;stroke:none"
       aria-label="0.0"
       transform="matrix(1.3333333,0,0,1.3333333,396.30923,336.00711)" />
    <path
       id="path23"
       d="M 10.8,84.551044 H 305.2"
       style="fill:none;stroke:#afc0ca;stroke-width:0.8;stroke-linecap:square;stroke-linejoin:round;stroke-miterlimit:10;stroke-dasharray:none;stroke-opacity:1"
       transform="matrix(1.3333333,0,0,-1.3333333,0,398.4)"
       clip-path="url(#clipPath24)" />
    <path
       id="path25"
       d="m 1.7221821,-4.0443092 c 0.082031,0 0.1640625,0 0.2460937,0 h 0.8789063 c -1.0546875,1.0429688 -1.734375,2.4960938 -1.734375,4.11328128 h 0.65625 c 0,-2.03906248 0.9960937,-3.50390628 1.6171875,-4.16015628 V -4.5716529 H 0.30421333 v 0.5273437 z m 3.3164062,3.41015628 H 4.4174946 v 0.6328125 H 5.0385883 Z M 9.157729,-2.2630592 c 0,-0.3398437 0,-1.1601562 -0.328125,-1.7226562 -0.3515625,-0.6328125 -0.890625,-0.7382813 -1.21875,-0.7382813 -0.3164063,0 -0.8671875,0.1054688 -1.2070313,0.703125 -0.3398437,0.5507813 -0.3515625,1.3125 -0.3515625,1.7578125 0,0.515625 0.023437,1.1484375 0.3164063,1.67578128 0.3164062,0.5625 0.8320312,0.7265625 1.2421875,0.7265625 0.6914062,0 1.078125,-0.3984375 1.2890625,-0.84375 C 9.1460102,-1.1966529 9.157729,-1.8294654 9.157729,-2.2630592 Z m -1.546875,1.94531253 c -0.2929688,0 -0.6328125,-0.1640625 -0.8085938,-0.66796875 -0.140625,-0.42187498 -0.140625,-0.86718748 -0.140625,-1.37109378 0,-0.6445312 0,-1.9101562 0.9492188,-1.9101562 0.9492187,0 0.9492187,1.265625 0.9492187,1.9101562 0,0.4570313 0,0.984375 -0.1757812,1.42968753 -0.1875,0.50390625 -0.5507813,0.609375 -0.7734375,0.609375 z m 0,0"
       style="fill:#000000;fill-opacity:1;fill-rule:nonzero;stroke:none"
       aria-label="7.0"
       transform="matrix(1.3333333,0,0,1.3333333,396.30923,283.85726)" />
    <path
       id="path26"
       d="M 10.8,123.66343 H 305.2"
       style="fill:none;stroke:#afc0ca;stroke-width:0.8;stroke-linecap:square;stroke-linejoin:round;stroke-miterlimit:10;stroke-dasharray:none;stroke-opacity:1"
       transform="matrix(1.3333333,0,0,-1.3333333,0,398.4)"
       clip-path="url(#clipPath27)" />
    <path
       id="path28"
       d="M 2.2395845,-4.7229371 H 2.0872407 c -0.4570312,0.421875 -1.03125,0.4453125 -1.44140623,0.4570312 v 0.4453125 C 0.91536572,-3.8323121 1.2669282,-3.8440309 1.606772,-3.9846559 v 3.5507813 H 0.68099072 V -2.808513e-4 H 3.1653657 V -0.4338746 H 2.2395845 Z m 4.2304687,3.5625 h 0.7265625 v -0.46875 H 6.4700532 V -4.5705934 H 5.778647 l -1.8632813,2.9414063 v 0.46875 h 1.9453125 v 1.1601562487 h 0.609375 z m -1.96875,-0.46875 C 4.7122407,-1.9573121 5.919272,-3.8088746 5.919272,-4.2307496 v 2.6015625 z m 4.2421875,0.99609375 H 8.122397 V -2.808513e-4 H 8.7434907 Z M 12.862631,-2.2619996 c 0,-0.3398438 0,-1.1601563 -0.328125,-1.7226563 -0.351562,-0.6328125 -0.890625,-0.7382812 -1.21875,-0.7382812 -0.316406,0 -0.867187,0.1054687 -1.207031,0.703125 -0.3398437,0.5507812 -0.3515624,1.3125 -0.3515624,1.7578125 0,0.515625 0.023437,1.1484375 0.3164064,1.67578125 0.316406,0.5625 0.832031,0.7265625 1.242187,0.7265625 0.691407,0 1.078125,-0.3984375 1.289063,-0.84375 0.246094,-0.49218755 0.257812,-1.12500005 0.257812,-1.55859375 z m -1.546875,1.9453125 c -0.292968,0 -0.632812,-0.1640625 -0.808593,-0.66796875 -0.140625,-0.42187505 -0.140625,-0.86718755 -0.140625,-1.37109375 0,-0.6445313 0,-1.9101563 0.949218,-1.9101563 0.949219,0 0.949219,1.265625 0.949219,1.9101563 0,0.4570312 0,0.984375 -0.175781,1.4296875 -0.1875,0.50390625 -0.550781,0.609375 -0.773438,0.609375 z m 0,0"
       style="fill:#000000;fill-opacity:1;fill-rule:nonzero;stroke:none"
       aria-label="14.0"
       transform="matrix(1.3333333,0,0,1.3333333,391.36936,231.70741)" />
    <path
       id="path29"
       d="M 10.8,162.77582 H 305.2"
       style="fill:none;stroke:#afc0ca;stroke-width:0.8;stroke-linecap:square;stroke-linejoin:round;stroke-miterlimit:10;stroke-dasharray:none;stroke-opacity:1"
       transform="matrix(1.3333333,0,0,-1.3333333,0,398.4)"
       clip-path="url(#clipPath30)" />
    <path
       id="path31"
       d="m 1.9700532,-0.53828378 c -0.082031,0 -0.1640625,0.0117188 -0.2460937,0.0117188 H 0.92708447 L 2.0052095,-1.4875025 c 0.1289062,-0.1054688 0.46875,-0.3632813 0.609375,-0.4804688 0.3046875,-0.28125 0.7148437,-0.6445312 0.7148437,-1.2421875 0,-0.796875 -0.5859375,-1.5117187 -1.5820312,-1.5117187 -0.7382813,0 -1.20703128,0.3984375 -1.44140628,1.1132812 l 0.328125,0.4101563 c 0.1640625,-0.5859375 0.41015628,-1.0429688 1.00781248,-1.0429688 0.5859375,0 1.03125,0.4101563 1.03125,1.0429688 0,0.5742187 -0.3398437,0.9023437 -0.75,1.3007812 -0.140625,0.140625 -0.515625,0.4570313 -0.6679687,0.5976563 -0.1992188,0.1757812 -0.67968753,0.64453122 -0.87890628,0.82031247 V 7.787184e-4 H 3.3294282 V -0.53828378 Z M 5.9427095,-4.7218775 H 5.7903657 c -0.4570312,0.421875 -1.03125,0.4453125 -1.4414062,0.4570312 v 0.4453125 c 0.2695312,-0.011719 0.6210937,-0.023437 0.9609375,-0.1640625 v 3.55078127 H 4.3841157 V 7.787184e-4 h 2.484375 V -0.43281503 H 5.9427095 Z m 2.8007812,4.08984372 H 8.122397 V 7.787184e-4 H 8.7434907 Z M 12.862631,-2.26094 c 0,-0.3398438 0,-1.1601563 -0.328125,-1.7226563 -0.351562,-0.6328125 -0.890625,-0.7382812 -1.21875,-0.7382812 -0.316406,0 -0.867187,0.1054687 -1.207031,0.703125 -0.3398437,0.5507812 -0.3515624,1.3125 -0.3515624,1.7578125 0,0.515625 0.023437,1.1484375 0.3164064,1.67578122 0.316406,0.5625 0.832031,0.7265625 1.242187,0.7265625 0.691407,0 1.078125,-0.3984375 1.289063,-0.84375 0.246094,-0.49218752 0.257812,-1.12500002 0.257812,-1.55859372 z m -1.546875,1.94531247 c -0.292968,0 -0.632812,-0.1640625 -0.808593,-0.66796875 C 10.366538,-1.4054713 10.366538,-1.8507838 10.366538,-2.35469 c 0,-0.6445313 0,-1.9101563 0.949218,-1.9101563 0.949219,0 0.949219,1.265625 0.949219,1.9101563 0,0.4570312 0,0.984375 -0.175781,1.42968747 -0.1875,0.50390625 -0.550781,0.609375 -0.773438,0.609375 z m 0,0"
       style="fill:#000000;fill-opacity:1;fill-rule:nonzero;stroke:none"
       aria-label="21.0"
       transform="matrix(1.3333333,0,0,1.3333333,391.36936,179.55756)" />
    <path
       id="path32"
       d="M 10.8,201.88821 H 305.2"
       style="fill:none;stroke:#afc0ca;stroke-width:0.8;stroke-linecap:square;stroke-linejoin:round;stroke-miterlimit:10;stroke-dasharray:none;stroke-opacity:1"
       transform="matrix(1.3333333,0,0,-1.3333333,0,398.4)"
       clip-path="url(#clipPath33)" />
    <path
       id="path34"
       d="m 1.9700532,-0.5401539 c -0.082031,0 -0.1640625,0.0117188 -0.2460937,0.0117188 H 0.92708447 L 2.0052095,-1.4893726 c 0.1289062,-0.1054688 0.46875,-0.3632813 0.609375,-0.4804688 0.3046875,-0.28125 0.7148437,-0.6445312 0.7148437,-1.2421875 0,-0.796875 -0.5859375,-1.5117187 -1.5820312,-1.5117187 -0.7382813,0 -1.20703128,0.3984375 -1.44140628,1.1132812 l 0.328125,0.4101563 c 0.1640625,-0.5859375 0.41015628,-1.0429688 1.00781248,-1.0429688 0.5859375,0 1.03125,0.4101563 1.03125,1.0429688 0,0.5742187 -0.3398437,0.9023437 -0.75,1.3007812 -0.140625,0.140625 -0.515625,0.4570313 -0.6679687,0.5976563 -0.1992188,0.1757812 -0.67968753,0.6445312 -0.87890628,0.82031245 V -0.0010914 H 3.3294282 v -0.5390625 z m 4.1132813,-1.9335937 c 0.46875,-0.140625 0.9023437,-0.515625 0.9023437,-1.03125 0,-0.6328125 -0.609375,-1.21875 -1.4296875,-1.21875 -0.8320312,0 -1.4414062,0.5859375 -1.4414062,1.21875 0,0.5273437 0.4570312,0.890625 0.9023437,1.03125 -0.609375,0.1875 -1.0078125,0.6679687 -1.0078125,1.2070312 0,0.73828125 0.6679688,1.40625 1.546875,1.40625 0.8789063,0 1.5351563,-0.66796875 1.5351563,-1.40625 0,-0.5390625 -0.3984375,-1.0195312 -1.0078125,-1.2070312 z M 5.5559907,-2.6964039 c -0.5039062,0 -0.9023437,-0.2929687 -0.9023437,-0.796875 0,-0.4453125 0.3164062,-0.796875 0.9023437,-0.796875 0.5742188,0 0.890625,0.3515625 0.890625,0.796875 0,0.4921875 -0.3867187,0.796875 -0.890625,0.796875 z m 0,2.37890625 c -0.4804687,0 -0.9140625,-0.3046875 -0.9140625,-0.96093745 0,-0.6210938 0.4101563,-0.9609375 0.9140625,-0.9609375 0.5039063,0 0.9023438,0.3398437 0.9023438,0.9609375 0,0.65624995 -0.4335938,0.96093745 -0.9023438,0.96093745 z m 3.1875,-0.31640625 H 8.122397 v 0.6328125 h 0.6210937 z m 4.1191403,-1.6289062 c 0,-0.3398438 0,-1.1601563 -0.328125,-1.7226563 -0.351562,-0.6328125 -0.890625,-0.7382812 -1.21875,-0.7382812 -0.316406,0 -0.867187,0.1054687 -1.207031,0.703125 -0.3398437,0.5507812 -0.3515624,1.3125 -0.3515624,1.7578125 0,0.515625 0.023437,1.1484375 0.3164064,1.6757812 0.316406,0.5625 0.832031,0.7265625 1.242187,0.7265625 0.691407,0 1.078125,-0.3984375 1.289063,-0.84375 0.246094,-0.4921875 0.257812,-1.125 0.257812,-1.5585937 z m -1.546875,1.94531245 c -0.292968,0 -0.632812,-0.1640625 -0.808593,-0.66796875 -0.140625,-0.421875 -0.140625,-0.8671875 -0.140625,-1.3710937 0,-0.6445313 0,-1.9101563 0.949218,-1.9101563 0.949219,0 0.949219,1.265625 0.949219,1.9101563 0,0.4570312 0,0.984375 -0.175781,1.42968745 -0.1875,0.50390625 -0.550781,0.609375 -0.773438,0.609375 z m 0,0"
       style="fill:#000000;fill-opacity:1;fill-rule:nonzero;stroke:none"
       aria-label="28.0"
       transform="matrix(1.3333333,0,0,1.3333333,391.36936,127.40771)" />
    <path
       id="path35"
       d="M 10.8,241.00059 H 305.2"
       style="fill:none;stroke:#afc0ca;stroke-width:0.8;stroke-linecap:square;stroke-linejoin:round;stroke-miterlimit:10;stroke-dasharray:none;stroke-opacity:1"
       transform="matrix(1.3333333,0,0,-1.3333333,0,398.4)"
       clip-path="url(#clipPath36)" />
    <path
       id="path37"
       d="m 0.70442822,-3.5742506 c 0.28125,-0.5625 0.78515628,-0.7148437 1.11328128,-0.7148437 0.4101562,0 0.7265625,0.234375 0.7265625,0.6328125 0,0.375 -0.2578125,0.8203125 -0.7851563,0.9140625 -0.035156,0.011719 -0.058594,0.011719 -0.5273437,0.046875 v 0.4570312 h 0.5507812 c 0.65625,0 0.9023438,0.5273438 0.9023438,0.9609375 0,0.55078127 -0.328125,0.96093752 -0.8789063,0.96093752 -0.4921875,0 -1.05468748,-0.234375 -1.40624998,-0.6796875 l -0.09375,0.45703125 c 0.41015625,0.4453125 0.97265628,0.6796875 1.51171878,0.6796875 0.9140625,0 1.5703125,-0.6796875 1.5703125,-1.40624997 0,-0.5742188 -0.4570313,-1.03125 -1.0078125,-1.1953125 0.5273437,-0.2695313 0.796875,-0.7382813 0.796875,-1.1953125 0,-0.5859375 -0.5976563,-1.0664063 -1.3476563,-1.0664063 -0.609375,0 -1.12499998,0.328125 -1.41796873,0.7382813 z m 4.14843748,-0.515625 h 1.921875 v -0.4804687 h -2.484375 v 2.6015625 H 4.794272 c 0.1757812,-0.375 0.5039062,-0.5390625 0.8085937,-0.5390625 0.2929688,0 0.7265625,0.1875 0.7265625,1.078125 0,0.91406247 -0.5859375,1.11328122 -0.9375,1.11328122 -0.4570312,0 -0.9023437,-0.24609375 -1.1484375,-0.64453125 l -0.2578125,0.421875 c 0.3398438,0.421875 0.8554688,0.6796875 1.40625,0.6796875 0.9257813,0 1.640625,-0.703125 1.640625,-1.55859377 0,-0.8671875 -0.6445312,-1.546875 -1.40625,-1.546875 -0.3046875,0 -0.5742187,0.09375 -0.7734375,0.2695313 z m 3.890625,3.45703127 H 8.122397 V -3.18297e-5 H 8.7434907 Z M 12.862631,-2.2617506 c 0,-0.3398437 0,-1.1601562 -0.328125,-1.7226562 -0.351562,-0.6328125 -0.890625,-0.7382813 -1.21875,-0.7382813 -0.316406,0 -0.867187,0.1054688 -1.207031,0.703125 -0.3398437,0.5507813 -0.3515624,1.3125 -0.3515624,1.7578125 0,0.515625 0.023437,1.1484375 0.3164064,1.67578127 0.316406,0.5625 0.832031,0.7265625 1.242187,0.7265625 0.691407,0 1.078125,-0.3984375 1.289063,-0.84375 0.246094,-0.49218747 0.257812,-1.12499997 0.257812,-1.55859377 z m -1.546875,1.94531252 c -0.292968,0 -0.632812,-0.1640625 -0.808593,-0.66796875 -0.140625,-0.42187497 -0.140625,-0.86718747 -0.140625,-1.37109377 0,-0.6445312 0,-1.9101562 0.949218,-1.9101562 0.949219,0 0.949219,1.265625 0.949219,1.9101562 0,0.4570313 0,0.984375 -0.175781,1.42968752 -0.1875,0.50390625 -0.550781,0.609375 -0.773438,0.609375 z m 0,0"
       style="fill:#000000;fill-opacity:1;fill-rule:nonzero;stroke:none"
       aria-label="35.0"
       transform="matrix(1.3333333,0,0,1.3333333,391.36936,75.257855)" />
    <path
       id="path38"
       d="m 2.1910685,-3.7624755 c -0.4570313,-0.1054687 -0.9140625,-0.46875 -0.9140625,-0.984375 0,-0.515625 0.4921875,-1.03125 1.3007812,-1.03125 0.6445313,0 1.1015625,0.1875 1.5585938,0.5742188 L 4.2887247,-5.9773192 C 3.8316935,-6.1999755 3.4098185,-6.4226317 2.589506,-6.4226317 c -1.2773438,0 -2.07421878,0.890625 -2.07421878,1.78125 0,0.234375 0.0351563,0.5859375 0.33984375,0.9960937 0.42187503,0.5390625 0.99609373,0.6796875 1.37109373,0.7617188 0.1171875,0.035156 0.6796875,0.1757812 0.75,0.1992187 0.4101563,0.1171875 0.8554688,0.515625 0.8554688,1.0664063 0,0.5976562 -0.5039063,1.14843747 -1.3007813,1.14843747 -0.7265625,0 -1.40625,-0.26953125 -1.98046873,-0.73828127 l -0.140625,0.78515627 C 1.2887247,0.12814952 2.1090372,0.19846202 2.5309122,0.19846202 c 1.2304688,0 2.0625,-0.9140625 2.0625,-1.91015622 0,-1.0195313 -0.8320312,-1.6757813 -1.5,-1.8398438 z m 6.7529297,1.7929688 c 0,-0.2695313 -0.011719,-0.9492188 -0.3632813,-1.4882813 -0.375,-0.5625 -0.9492187,-0.6796875 -1.2890625,-0.6796875 -1.0429687,0 -1.8632812,0.9609375 -1.8632812,2.109375 0,1.18359377 0.8789062,2.12109377 1.9921875,2.12109377 0.4335937,0 0.9492187,-0.10546875 1.4765625,-0.43359375 l -0.058594,-0.62109375 c -0.5625,0.41015625 -1.0898437,0.48046875 -1.40625,0.48046875 -0.7382812,0 -1.3125,-0.65625002 -1.3476562,-1.48828122 z M 6.1432169,-2.4968505 c 0.140625,-0.5742187 0.5859375,-1.0546875 1.1484375,-1.0546875 0.328125,0 0.9375,0.1523438 1.1132813,1.0546875 z m 6.8291011,1.52343752 c -0.433593,0.3046875 -0.902343,0.45703125 -1.441406,0.45703125 -0.761719,0 -1.265625,-0.63281247 -1.265625,-1.48828127 0,-0.6796875 0.339844,-1.5234375 1.300781,-1.5234375 0.5625,0 0.855469,0.1171875 1.300782,0.421875 l 0.117187,-0.6328125 c -0.503906,-0.28125 -0.785156,-0.3984375 -1.429687,-0.3984375 -1.265625,0 -2.027344,1.078125 -2.027344,2.1445313 0,1.11328122 0.832031,2.08593747 1.992187,2.08593747 0.632813,0 1.101563,-0.1875 1.511719,-0.421875 z m 4.640625,-0.99609372 c 0,-1.1835938 -0.890625,-2.1679688 -2.027343,-2.1679688 -1.113282,0 -2.027344,0.9726563 -2.027344,2.1679688 0,1.18359372 0.9375,2.06249997 2.027344,2.06249997 1.113281,0 2.027343,-0.90234375 2.027343,-2.06249997 z m -2.015625,1.45312497 c -0.691406,0 -1.300781,-0.53906247 -1.300781,-1.54687497 0,-1.0429688 0.679688,-1.4882813 1.289063,-1.4882813 0.644531,0 1.289062,0.4570313 1.289062,1.4882813 0,1.0429687 -0.632812,1.54687497 -1.277344,1.54687497 z M 21.907865,-2.660913 c 0,-0.6679687 -0.175781,-1.4179687 -1.253906,-1.4179687 -0.714844,0 -1.148437,0.4101562 -1.347656,0.6796875 v -0.6328125 h -0.691406 v 4.0312499674 h 0.738281 V -2.192163 c 0,-0.5859375 0.234375,-1.3007812 0.914062,-1.3007812 0.902344,0 0.902344,0.6328125 0.902344,0.890625 v 2.6015624674 h 0.738281 z m 4.740235,-3.5625 h -0.714844 v 2.6367188 c -0.503906,-0.421875 -1.078125,-0.4921875 -1.371094,-0.4921875 -0.902344,0 -1.59375,0.9375 -1.59375,2.0859375 0,1.16015622 0.679688,2.08593747 1.558594,2.08593747 0.269531,0 0.84375,-0.05859375 1.371094,-0.5625 v 0.4687499974 h 0.75 z m -0.75,4.9570313 c 0,0.1757812 0,0.1875 -0.09375,0.31640622 -0.246094,0.31640625 -0.550782,0.46875 -0.867188,0.46875 -0.585937,0 -1.230469,-0.421875 -1.230469,-1.50000002 0,-1.1484375 0.761719,-1.5117187 1.324219,-1.5117187 0.410156,0 0.703125,0.234375 0.867188,0.4570312 z m 4.658203,-2.578125 c -0.550781,-0.2578125 -0.972656,-0.2929688 -1.335938,-0.2929688 -0.210937,0 -1.523437,0 -1.523437,1.1835938 0,0.4335937 0.257812,0.703125 0.363281,0.796875 0.339844,0.3046875 0.574219,0.3398437 1.183594,0.4570312 0.28125,0.058594 0.796875,0.1523438 0.796875,0.609375 0,0.58593752 -0.726563,0.58593752 -0.84375,0.58593752 -0.527344,0 -1.042969,-0.17578125 -1.429688,-0.4453125 l -0.117187,0.65625 c 0.539062,0.28125 1.089844,0.38671875 1.546875,0.38671875 0.574219,0 1.511719,-0.1875 1.511719,-1.25390627 0,-0.3046875 -0.128907,-0.6210937 -0.433594,-0.890625 -0.304688,-0.2578125 -0.574219,-0.3164062 -1.136719,-0.421875 -0.316406,-0.058594 -0.773437,-0.140625 -0.773437,-0.5625 0,-0.5273437 0.644531,-0.5273437 0.773437,-0.5273437 0.65625,0 1.042969,0.1992187 1.300781,0.3398437 z m 0,0"
       style="fill:#221f21;fill-opacity:1;fill-rule:nonzero;stroke:none"
       aria-label="Seconds"
       transform="matrix(0,-1.3333333,1.3333333,0,424.23538,228.53471)" />
    <path
       id="path39"
       d="m 24.181818,45.730534 53.527273,58.315586 53.527269,19.80924 53.52728,9.19721 53.52727,21.32602 53.52727,84.76863"
       style="fill:none;stroke:#056fa1;stroke-width:3;stroke-linecap:square;stroke-linejoin:round;stroke-miterlimit:10;stroke-dasharray:none;stroke-opacity:1"
       transform="matrix(1.3333333,0,0,-1.3333333,0,398.4)"
       clip-path="url(#clipPath40)" />
    <path
       id="path41"
       d="m 24.181818,51.15065 53.527273,-0.222346 53.527269,0.130144 53.52728,-0.138693 53.52727,0.105552 53.52727,-0.0055"
       style="fill:none;stroke:#e0b266;stroke-width:3;stroke-linecap:square;stroke-linejoin:round;stroke-miterlimit:10;stroke-dasharray:none;stroke-opacity:1"
       transform="matrix(1.3333333,0,0,-1.3333333,0,398.4)"
       clip-path="url(#clipPath42)" />
    <path
       id="path43"
       d="M 10.8,35.969064 H 305.2"
       style="fill:none;stroke:#000000;stroke-width:0.8;stroke-linecap:square;stroke-linejoin:miter;stroke-miterlimit:10;stroke-dasharray:none;stroke-opacity:1"
       transform="matrix(1.3333333,0,0,-1.3333333,0,398.4)" />
    <path
       id="path44"
       d="m 13.8,261.1545 h 3 3"
       style="fill:none;stroke:#056fa1;stroke-width:3;stroke-linecap:square;stroke-linejoin:round;stroke-miterlimit:10;stroke-dasharray:none;stroke-opacity:1"
       transform="matrix(1.3333333,0,0,-1.3333333,0,398.4)" />
    <path
       id="path45"
       d="M 4.5691406,-5.1904232 H 3.9363281 l -0.46875,2.1914062 c -0.3164062,-0.2929687 -0.75,-0.3984375 -1.1015625,-0.3984375 -0.9375,0 -1.80468747,1.1132813 -1.80468747,2.203125 0,0.63281253 0.33984375,1.26562503 1.05468747,1.26562503 0.2578125,0 0.7265625,-0.05859375 1.2773438,-0.45703125 L 2.8113281,9.830324e-4 h 0.6445313 z m -1.546875,4.1484375 c -0.023437,0.12890623 -0.023437,0.14062498 -0.1171875,0.22265623 -0.1054687,0.10546875 -0.3984375,0.3984375 -0.84375,0.3984375 -0.140625,0 -0.8320312,-0.0234375 -0.8320312,-0.86718753 0,-0.890625 0.6210937,-1.6171875 1.4414062,-1.6171875 0.4804688,0 0.6679688,0.3515625 0.6679688,0.4101563 0,0.023437 0,0.058594 -0.011719,0.09375 z M 6.496875,-5.1318295 h -0.75 l -0.1640625,0.7617188 h 0.75 z M 4.7273438,9.830324e-4 H 5.3484375 L 6.0515625,-3.3154232 H 5.4304688 Z M 8.0115234,-2.8466732 h 0.8554688 l 0.1054687,-0.46875 h -0.890625 l 0.1992188,-0.890625 c 0.023437,-0.140625 0.058594,-0.2695313 0.2929687,-0.421875 0.234375,-0.140625 0.46875,-0.140625 0.5390625,-0.140625 0.058594,0 0.3398438,0 0.6210938,0.1289062 l 0.1054687,-0.5507812 c -0.1054687,-0.023437 -0.328125,-0.070312 -0.609375,-0.070312 -0.796875,0 -1.453125,0.5859375 -1.6054687,1.265625 l -0.140625,0.6796875 H 6.8982422 l -0.09375,0.46875 H 7.3787109 L 6.7810547,9.830324e-4 h 0.6210937 z m 2.1914066,0 h 0.867187 l 0.09375,-0.46875 h -0.878906 l 0.1875,-0.890625 c 0.03516,-0.140625 0.07031,-0.2695313 0.292969,-0.421875 0.234375,-0.140625 0.480468,-0.140625 0.550781,-0.140625 0.05859,0 0.339844,0 0.609375,0.1289062 l 0.117187,-0.5507812 c -0.105468,-0.023437 -0.328125,-0.070312 -0.621093,-0.070312 -0.75,0 -1.4414066,0.5273437 -1.6054691,1.2890625 l -0.84375,3.9726562324 h 0.6328125 z m 6.571289,0.609375 c 0.02344,-0.1289063 0.04687,-0.2109375 0.04687,-0.3984375 0,-0.6328125 -0.492188,-0.7617188 -0.902344,-0.7617188 -0.574219,0 -1.042969,0.3164063 -1.324219,0.609375 -0.05859,-0.3984375 -0.339843,-0.609375 -0.878906,-0.609375 -0.433594,0 -0.878906,0.1757813 -1.277344,0.5625 L 12.54375,-3.374017 H 11.946094 L 11.23125,9.830324e-4 h 0.644531 L 12.215625,-1.5576107 c 0.09375,-0.4570313 0.140625,-0.6914063 0.386719,-0.9960938 0.1875,-0.234375 0.410156,-0.3515625 0.679687,-0.3515625 0.386719,0 0.644532,0.1289063 0.644532,0.4921875 0,0.1054688 0,0.1289063 -0.01172,0.1757813 L 13.434375,9.830324e-4 h 0.65625 L 14.41875,-1.5576107 c 0.105469,-0.4570313 0.152344,-0.6914063 0.398438,-0.9960938 0.1875,-0.234375 0.410156,-0.3515625 0.679687,-0.3515625 0.375,0 0.632813,0.1289063 0.632813,0.4921875 0,0.1054688 0,0.1289063 -0.01172,0.1757813 L 15.6375,9.830324e-4 h 0.65625 z m 1.49414,1.88671873 c 0.164063,0.1875 0.492188,0.421875 0.984375,0.421875 0.925782,0 1.898438,-1.0078125 1.898438,-2.25000003 0,-0.515625 -0.234375,-1.21875 -0.925781,-1.21875 -0.515625,0 -0.996094,0.1640625 -1.429688,0.4335938 l 0.08203,-0.3515625 H 18.244922 L 17.237109,1.454108 h 0.65625 z m 0.445313,-2.12109373 c 0.08203,-0.082031 0.433594,-0.4101563 0.914062,-0.4101563 0.445313,0 0.84375,0.3164063 0.84375,0.9375 0,0.8320313 -0.75,1.52343753 -1.441406,1.52343753 -0.375,0 -0.5625,-0.234375 -0.644531,-0.45703125 z m 5.932617,1.65234373 c -0.386719,0.234375 -0.832031,0.375 -1.3125,0.375 -0.691406,0 -0.878906,-0.52734375 -0.878906,-0.89062503 0,-0.5976562 0.433594,-1.5820312 1.417969,-1.5820312 0.46875,0 0.714843,0.082031 1.054687,0.3515625 l 0.210938,-0.5390625 c -0.375,-0.234375 -0.597657,-0.328125 -1.148438,-0.328125 -1.277344,0 -2.179687,1.1601562 -2.179687,2.1328125 0,0.77343748 0.527343,1.37109373 1.40625,1.37109373 0.65625,0 1.183593,-0.24609375 1.359375,-0.33984375 z m 0,0"
       style="fill:#000000;fill-opacity:1;fill-rule:nonzero;stroke:none"
       aria-label="difmpc"
       transform="matrix(1.3333333,0,0,1.3333333,30.4,53.694002)" />
    <path
       id="path46"
       d="m 62.577157,261.1545 h 3 3"
       style="fill:none;stroke:#e0b266;stroke-width:3;stroke-linecap:square;stroke-linejoin:round;stroke-miterlimit:10;stroke-dasharray:none;stroke-opacity:1"
       transform="matrix(1.3333333,0,0,-1.3333333,0,398.4)" />
    <path
       id="path47"
       d="M 3.6923742,-4.9794857 C 3.2119054,-5.2255795 2.7900304,-5.342767 2.2392492,-5.342767 c -1.1367188,0 -1.79296877,0.7617188 -1.79296877,1.4765625 0,0.3046875 0.09375,0.6679688 0.45703125,1.0078125 0.32812502,0.3046875 0.67968752,0.3867188 1.13671872,0.4921875 0.6328125,0.1523438 0.796875,0.1875 1.0195313,0.4101563 0.140625,0.1523437 0.2578125,0.3515625 0.2578125,0.609375 0,0.46874998 -0.4101563,0.94921873 -1.1367188,0.94921873 -0.4335937,0 -1.1132812,-0.12890625 -1.71093747,-0.63281253 l -0.1171875,0.66796878 c 0.375,0.22265625 0.99609377,0.515625 1.82812497,0.515625 1.0429688,0 1.78125,-0.75 1.78125,-1.58203128 0,-0.609375 -0.3515625,-0.9609375 -0.5039062,-1.1132812 -0.3046875,-0.3046875 -0.65625,-0.3867188 -1.2304688,-0.5273438 -0.4570312,-0.1054687 -0.6914062,-0.1640625 -0.8789062,-0.328125 -0.09375,-0.1054687 -0.2578125,-0.2695312 -0.2578125,-0.5625 0,-0.4101562 0.4101562,-0.84375 1.1367187,-0.84375 0.5742188,0 0.9609375,0.1757813 1.3476563,0.5039063 z m 4.9570312,4.73437498 c 0.7382813,-0.52734375 1.1835938,-1.35937498 1.1835938,-2.32031248 0,-1.5585938 -1.1367188,-2.7773438 -2.4960938,-2.7773438 -1.3476562,0 -2.484375,1.21875 -2.484375,2.7773438 0,1.546875 1.1484375,2.71874998 2.484375,2.71874998 0.3398438,0 0.6445313,-0.08203125 0.7148438,-0.10546875 l 0.6679687,0.9140625 h 0.8789063 z m -0.9257812,-0.1640625 c -0.1289063,0.0351563 -0.2929688,0.046875 -0.3867188,0.046875 -0.9140625,0 -1.7578125,-0.84374998 -1.7578125,-2.20312498 0,-1.3828125 0.84375,-2.2617188 1.7578125,-2.2617188 0.9257813,0 1.7578125,0.8789063 1.7578125,2.2617188 0,0.84375 -0.3164062,1.4765625 -0.796875,1.86328123 L 7.7001867,-1.452142 H 6.9736242 Z M 13.067374,-2.1318295 c 0.972656,0 1.828125,-0.6796875 1.828125,-1.5351562 0,-0.8085938 -0.796875,-1.5234375 -1.875,-1.5234375 H 11.004874 V 9.830324e-4 h 0.75 V -2.1318295 Z m -0.234375,-2.6132812 c 0.84375,0 1.382813,0.4453125 1.382813,1.078125 0,0.609375 -0.515625,1.078125 -1.382813,1.078125 h -1.101562 v -2.15625 z m 4.702149,3.3164062 v -0.46875 h -2.109375 v 0.46875 z m 4.532226,-1.0078125 v -0.4921875 h -2.613281 v -1.7226562 h 1.089844 c 0.09375,0 0.1875,0.011719 0.269531,0.011719 h 1.476562 v -0.527344 H 18.704093 V 9.830324e-4 h 3.703125 V -0.58495447 H 21.72753 c -0.621093,0 -1.253906,0.0234375 -1.875,0.0234375 H 19.454093 V -2.436517 Z m 4.913086,2.19140628 c 0.738281,-0.52734375 1.183594,-1.35937498 1.183594,-2.32031248 0,-1.5585938 -1.136719,-2.7773438 -2.496094,-2.7773438 -1.347656,0 -2.484375,1.21875 -2.484375,2.7773438 0,1.546875 1.148438,2.71874998 2.484375,2.71874998 0.339844,0 0.644531,-0.08203125 0.714844,-0.10546875 l 0.667969,0.9140625 h 0.878906 z m -0.925781,-0.1640625 c -0.128906,0.0351563 -0.292969,0.046875 -0.386719,0.046875 -0.914062,0 -1.757812,-0.84374998 -1.757812,-2.20312498 0,-1.3828125 0.84375,-2.2617188 1.757812,-2.2617188 0.925781,0 1.757813,0.8789063 1.757813,2.2617188 0,0.84375 -0.316407,1.4765625 -0.796875,1.86328123 L 26.031241,-1.452142 h -0.726562 z m 0,0"
       style="fill:#000000;fill-opacity:1;fill-rule:nonzero;stroke:none"
       aria-label="SQP-EQ"
       transform="matrix(1.3333333,0,0,1.3333333,95.436209,53.694002)" />
    <path
       id="path48"
       d="m 2.953125,-4.8291016 c -0.234375,-0.058594 -0.9140625,-0.3164062 -0.9140625,-0.9375 0,-0.9257812 0.9257813,-0.9492187 1.3007813,-0.9492187 0.6210937,0 1.1601562,0.140625 1.6992187,0.6679687 0.1757812,0.1640625 0.1875,0.1757813 0.234375,0.1757813 0.058594,0 0.1171875,-0.035156 0.1523437,-0.1992188 l 0.1640625,-0.9492187 c 0.023437,-0.09375 0.023437,-0.1171875 0.023437,-0.140625 0,-0.09375 -0.011719,-0.1054688 -0.2929687,-0.2460938 -0.7734375,-0.3867187 -1.4179687,-0.4335937 -1.9804687,-0.4335937 -0.9726563,0 -2.67187505,0.2226562 -2.67187505,2.2734375 0,0.7734375 0.41015625,1.2773437 0.60937495,1.5 0.5625,0.5742187 1.0781251,0.6796875 1.9335938,0.8789062 0.609375,0.140625 0.8554687,0.1992188 1.0898437,0.4101563 0.1171875,0.1171875 0.3398438,0.3398437 0.3398438,0.7617187 0,1.03125004 -0.9375,1.06640629 -1.3007812,1.06640629 -0.9140625,0 -1.7226563,-0.37499999 -2.2617188,-0.86718749 C 0.9375,-1.9462891 0.92578125,-1.9462891 0.87890625,-1.9462891 c -0.0703125,0 -0.1171875,0.023437 -0.15234375,0.1875 L 0.5625,-0.79785156 c -0.0234375,0.0820313 -0.0234375,0.10546875 -0.0234375,0.140625 0,0.234375 1.1367187,0.62109375 1.1953125,0.64453125 0.7265625,0.234375 1.3242188,0.2578125 1.6054688,0.2578125 1.6406249,0 2.6718749,-0.73828125 2.6718749,-2.43749999 0,-1.2304688 -0.9023437,-2.1445313 -2.0039062,-2.4023438 z m 8.748047,4.27734379 c 0,-0.1171875 -0.03516,-0.62109379 -0.05859,-0.76171879 0,-0.035156 -0.02344,-0.140625 -0.140625,-0.140625 -0.03516,0 -0.05859,0 -0.164062,0.1054688 -0.1875,0.1640625 -0.703125,0.60937499 -1.6054691,0.60937499 -1.1367188,0 -1.1367188,-1.10156249 -1.1367188,-1.80468749 0,-0.890625 0.046875,-1.8046875 1.171875,-1.8046875 0.7148439,0 1.0078129,0.1757812 1.3945309,0.5039062 0.140625,0.1171875 0.164063,0.1171875 0.199219,0.1171875 0.117188,0 0.140625,-0.09375 0.140625,-0.140625 0.02344,-0.09375 0.140625,-0.703125 0.140625,-0.7617187 0,-0.09375 -0.08203,-0.140625 -0.269531,-0.2226563 -0.527344,-0.2460937 -0.855469,-0.3515625 -1.6171876,-0.3515625 -1.6289063,0 -2.6484375,0.7617188 -2.6484375,2.6835938 0,1.81640624 0.9375,2.63671874 2.5898437,2.63671874 0.2929688,0 0.9609374,-0.0117188 1.6875004,-0.375 0.304687,-0.1640625 0.316406,-0.17578125 0.316406,-0.29296875 z m 5.428711,-2.90624999 c 0,-1.734375 -1.664063,-1.7460938 -2.214844,-1.7460938 -0.515625,0 -1.066406,0.046875 -1.792969,0.3515625 -0.234375,0.09375 -0.292968,0.1289063 -0.292968,0.2460938 0,0.082031 0.07031,0.7148437 0.08203,0.8085937 0.01172,0.058594 0.05859,0.1171875 0.140625,0.1171875 0.05859,0 0.08203,-0.035156 0.117187,-0.070312 0.480469,-0.4921875 1.019532,-0.7265625 1.699219,-0.7265625 0.597656,0 0.773438,0.3515625 0.773438,1.0078125 v 0.375 c -0.386719,0 -3.257813,0.023437 -3.257813,1.640625 0,0.76171879 0.609375,1.57031254 1.582031,1.57031254 0.363282,0 1.195313,-0.10546875 1.699219,-0.8671875 v 0.22265625 c 0,0.3515625 0.08203,0.5273437475 0.527344,0.5273437475 h 0.410156 c 0.410156,0 0.527344,-0.1406249975 0.527344,-0.5273437475 z m -1.488281,1.7695312 c 0,1.01953129 -1.042969,1.01953129 -1.078125,1.01953129 -0.457032,0 -0.75,-0.39843749 -0.75,-0.80859379 0,-1.078125 1.511718,-1.1484375 1.828125,-1.1601562 z m 4.277343,-5.390625 c 0,-0.3515625 -0.07031,-0.5273437 -0.515625,-0.5273437 h -0.410156 c -0.398437,0 -0.527344,0.1171875 -0.527344,0.5273437 v 6.55078129 c 0,0.3984375 0.117188,0.5273437475 0.527344,0.5273437475 h 0.410156 c 0.410157,0 0.515625,-0.1406249975 0.515625,-0.5273437475 z m 5.759766,3.6210938 c 0,-1.734375 -1.664063,-1.7460938 -2.214844,-1.7460938 -0.515625,0 -1.066406,0.046875 -1.792969,0.3515625 -0.234375,0.09375 -0.292968,0.1289063 -0.292968,0.2460938 0,0.082031 0.07031,0.7148437 0.08203,0.8085937 0.01172,0.058594 0.05859,0.1171875 0.140625,0.1171875 0.05859,0 0.08203,-0.035156 0.117187,-0.070312 0.480469,-0.4921875 1.019532,-0.7265625 1.699219,-0.7265625 0.597656,0 0.773438,0.3515625 0.773438,1.0078125 v 0.375 c -0.386719,0 -3.257813,0.023437 -3.257813,1.640625 0,0.76171879 0.609375,1.57031254 1.582031,1.57031254 0.363282,0 1.195313,-0.10546875 1.699219,-0.8671875 v 0.22265625 c 0,0.3515625 0.08203,0.5273437475 0.527344,0.5273437475 h 0.410156 c 0.410156,0 0.527344,-0.1406249975 0.527344,-0.5273437475 z m -1.488281,1.7695312 c 0,1.01953129 -1.042969,1.01953129 -1.078125,1.01953129 -0.457032,0 -0.75,-0.39843749 -0.75,-0.80859379 0,-1.078125 1.511718,-1.1484375 1.828125,-1.1601562 z m 4.274414,-5.390625 c 0,-0.3515625 -0.07031,-0.5273437 -0.515625,-0.5273437 h -0.410157 c -0.398437,0 -0.527343,0.1171875 -0.527343,0.5273437 v 6.55078129 c 0,0.3984375 0.117187,0.5273437475 0.527343,0.5273437475 h 0.433594 c 0.1875,0 0.515625,0 0.527344,-0.4218749975 0.503906,0.5390625 1.066406,0.5390625 1.242187,0.5390625 2.332032,0 2.332032,-2.09765624 2.332032,-2.64843754 0,-0.5273437 0,-2.6132812 -2.0625,-2.6132812 -0.890625,0 -1.441407,0.5039062 -1.546875,0.6210937 z M 28.5,-3.9619141 c 0.140625,-0.140625 0.46875,-0.3867187 0.972656,-0.3867187 1.113281,0 1.113281,1.0078125 1.113281,1.828125 0,0.8085937 0,1.85156249 -1.230468,1.85156249 -0.457032,0 -0.738282,-0.26953125 -0.855469,-0.42187499 z m 5.106445,-3.65625 c -0.351562,0 -0.527343,0.070312 -0.527343,0.5039063 v 0.5039062 c 0,0.3515625 0.117187,0.4921875 0.515625,0.4921875 h 0.574218 c 0.527344,0 0.527344,-0.2226562 0.527344,-0.7382812 0,-0.5273438 0,-0.7617188 -0.527344,-0.7617188 z m 1.007813,3.1289063 c 0,-0.3515625 -0.07031,-0.5273438 -0.515625,-0.5273438 h -0.410156 c -0.398438,0 -0.527344,0.1171875 -0.527344,0.5273438 v 3.96093749 c 0,0.3984375 0.117187,0.5273437475 0.527344,0.5273437475 h 0.410156 c 0.410156,0 0.515625,-0.1406249975 0.515625,-0.5273437475 z m 2.794922,-2.5898438 c 0,-0.3515625 -0.07031,-0.5273437 -0.515625,-0.5273437 h -0.410157 c -0.398437,0 -0.527343,0.1171875 -0.527343,0.5273437 v 6.55078129 c 0,0.3984375 0.117187,0.5273437475 0.527343,0.5273437475 h 0.410157 c 0.410156,0 0.515625,-0.1406249975 0.515625,-0.5273437475 z m 1.787109,-0.5390625 c -0.351562,0 -0.527344,0.070312 -0.527344,0.5039063 v 0.5039062 c 0,0.3515625 0.117188,0.4921875 0.515625,0.4921875 h 0.574219 c 0.527344,0 0.527344,-0.2226562 0.527344,-0.7382812 0,-0.5273438 0,-0.7617188 -0.527344,-0.7617188 z m 1.007813,3.1289063 c 0,-0.3515625 -0.07031,-0.5273438 -0.515625,-0.5273438 H 39.27832 c -0.398437,0 -0.527343,0.1171875 -0.527343,0.5273438 v 3.96093749 c 0,0.3984375 0.117187,0.5273437475 0.527343,0.5273437475 h 0.410157 c 0.410156,0 0.515625,-0.1406249975 0.515625,-0.5273437475 z m 3.064453,0.2578125 h 0.972656 c 0.128906,0 0.527344,0 0.527344,-0.3984375 0,-0.3867188 -0.398438,-0.3867188 -0.527344,-0.3867188 h -0.972656 v -0.9140625 c 0,-0.3515625 -0.08203,-0.5273437 -0.527344,-0.5273437 h -0.339844 c -0.398437,0 -0.527344,0.1289062 -0.527344,0.5273437 v 0.9140625 H 41.62793 c -0.128907,0 -0.527344,0 -0.527344,0.3867188 0,0.3984375 0.386719,0.3984375 0.527344,0.3984375 h 0.210937 v 2.7773437 c 0,1.10156254 0.398438,1.57031254 1.148438,1.57031254 0.105468,0 0.585937,0 1.160156,-0.17578125 0.1875,-0.046875 0.820312,-0.24609375 0.820312,-0.45703125 0,-0.0351563 -0.02344,-0.10546875 -0.09375,-0.33984375 -0.04687,-0.22265629 -0.07031,-0.28124999 -0.175781,-0.28124999 -0.04687,0 -0.05859,0.011719 -0.128906,0.070312 -0.117188,0.09375 -0.410156,0.32812499 -0.878906,0.32812499 -0.257813,0 -0.421875,-0.1875 -0.421875,-0.90234379 z m 6.834961,-0.2695313 c 0.04687,-0.140625 0.04687,-0.1640625 0.04687,-0.2226562 0,-0.2929688 -0.292969,-0.2929688 -0.433594,-0.2929688 h -0.246094 c -0.175781,0 -0.410156,0 -0.574219,0.2460938 -0.03516,0.058594 -0.925781,2.484375 -0.972656,3.2109375 h -0.01172 c -0.05859,-0.5390625 -0.503906,-1.5585938 -0.984375,-2.6015625 -0.304687,-0.6914063 -0.375,-0.8554688 -0.925781,-0.8554688 h -0.28125 c -0.164062,0 -0.433594,0 -0.433594,0.28125 0,0.046875 0.03516,0.1171875 0.05859,0.1757813 l 2.074219,4.5585937375 C 47.326172,0.23339844 47.291016,0.35058594 47.255859,0.45605469 47.126953,0.81933594 46.939453,1.3115234 46.353516,1.3115234 c -0.363282,0 -0.621094,-0.1523437 -0.738282,-0.2226562 -0.05859,-0.035156 -0.07031,-0.046875 -0.105468,-0.046875 -0.05859,0 -0.140625,0.035156 -0.140625,0.1640625 0,0.082031 0.05859,0.84375 0.09375,0.890625 0.09375,0.1289062 0.691406,0.1523437 0.867187,0.1523437 1.359375,0 1.898438,-1.30078121 1.980469,-1.55859371 z m 11.370117,2.9296875 c 0,-0.082031 -0.07031,-0.1289062 -0.117188,-0.1289062 -0.257812,0 -0.574218,0.71484374 -2.121093,0.71484374 -1.933594,0 -2.484375,-1.18359374 -2.484375,-2.82421874 0,-1.640625 0.597656,-2.8242188 2.390625,-2.8242188 0.972656,0 1.488281,0.3867188 1.792968,0.6328125 0.05859,0.046875 0.09375,0.09375 0.175782,0.09375 0.03516,0 0.09375,-0.058594 0.105468,-0.09375 l 0.222657,-1.21875 c 0.01172,-0.046875 0,-0.09375 -0.09375,-0.1171875 -0.644532,-0.2460937 -1.3125,-0.3984375 -2.167969,-0.3984375 -2.671875,0 -4.042969,1.3007813 -4.042969,3.9140625 0,2.6835938 1.394531,3.92578129 4.054688,3.92578129 0.925781,0 1.511718,-0.12890625 2.308593,-0.62109375 0.09375,-0.0585938 0.07031,-0.12890625 0.07031,-0.12890625 z m 6.357422,-0.890625 c 0,-1.8046875 -0.867188,-2.7421875 -2.660157,-2.7421875 -1.828125,0 -2.671875,0.9726563 -2.671875,2.7421875 0,1.78125004 0.9375,2.57812504 2.660157,2.57812504 1.722656,0 2.671875,-0.78515625 2.671875,-2.57812504 z m -2.660157,1.72265629 c -1.183593,0 -1.183593,-0.98437499 -1.183593,-1.86328129 0,-0.84375 0,-1.8164062 1.171875,-1.8164062 1.183593,0 1.183593,0.9609375 1.183593,1.8164062 0,0.8671875 0,1.86328129 -1.171875,1.86328129 z M 77.024414,-3.5634766 c 0,-1.125 -0.492187,-1.5820312 -1.605469,-1.5820312 -0.773437,0 -1.382812,0.3632812 -1.769531,1.0898437 -0.175781,-1.0546875 -1.113281,-1.0898437 -1.570312,-1.0898437 -0.210938,0 -0.667969,0 -1.160157,0.3632812 -0.339843,0.2578125 -0.5625,0.609375 -0.632812,0.7734375 h -0.01172 v -0.5507812 c 0,-0.3515625 -0.08203,-0.5273438 -0.527344,-0.5273438 h -0.375 c -0.398437,0 -0.527343,0.1171875 -0.527343,0.5273438 v 4.03124999 c 0,0.3984375 0.117187,0.5273437475 0.527343,0.5273437475 h 0.433594 c 0.421875,0 0.527344,-0.1406249975 0.527344,-0.5273437475 V -2.9541016 c 0,-0.984375 0.667969,-1.3945312 1.207031,-1.3945312 0.527344,0 0.644531,0.2226562 0.644531,0.8085937 v 3.01171879 c 0,0.3984375 0.128907,0.5273437475 0.527344,0.5273437475 h 0.445313 c 0.410156,0 0.515625,-0.1406249975 0.515625,-0.5273437475 V -2.9541016 c 0,-0.984375 0.667968,-1.3945312 1.207031,-1.3945312 0.527344,0 0.644531,0.2226562 0.644531,0.8085937 v 3.01171879 c 0,0.3984375 0.128906,0.5273437475 0.527344,0.5273437475 h 0.445312 c 0.410157,0 0.527344,-0.1406249975 0.527344,-0.5273437475 z m 2.80957,3.14062504 c 0.492188,0.5390625 1.101563,0.5390625 1.253907,0.5390625 2.320312,0 2.320312,-2.09765624 2.320312,-2.64843754 0,-0.5390625 0,-2.6132812 -1.980469,-2.6132812 -0.644531,0 -1.230468,0.2695312 -1.628906,0.6445312 0,-0.4101562 -0.152344,-0.515625 -0.515625,-0.515625 h -0.410156 c -0.398438,0 -0.527344,0.1171875 -0.527344,0.5273438 v 6.09375 c 0,0.3867187 0.117188,0.515625 0.527344,0.515625 h 0.433594 c 0.421875,0 0.527343,-0.140625 0.527343,-0.515625 z m 0,-3.50390624 c 0.117188,-0.1054688 0.480469,-0.3632813 0.960938,-0.3632813 1.113281,0 1.125,1.3007813 1.125,1.78125 0,0.4335938 0,1.83984379 -1.242188,1.83984379 -0.246093,0 -0.445312,-0.09375 -0.574218,-0.1875 C 79.833984,-1.0439453 79.833984,-1.0908203 79.833984,-1.2900391 Z m 9.079102,0.46875 c 0,-1.734375 -1.664063,-1.7460938 -2.214844,-1.7460938 -0.515625,0 -1.066406,0.046875 -1.792969,0.3515625 -0.234375,0.09375 -0.292968,0.1289063 -0.292968,0.2460938 0,0.082031 0.07031,0.7148437 0.08203,0.8085937 0.01172,0.058594 0.05859,0.1171875 0.140625,0.1171875 0.05859,0 0.08203,-0.035156 0.117187,-0.070312 0.480469,-0.4921875 1.019532,-0.7265625 1.699219,-0.7265625 0.597656,0 0.773438,0.3515625 0.773438,1.0078125 v 0.375 c -0.386719,0 -3.257813,0.023437 -3.257813,1.640625 0,0.76171879 0.609375,1.57031254 1.582031,1.57031254 0.363282,0 1.195313,-0.10546875 1.699219,-0.8671875 v 0.22265625 c 0,0.3515625 0.08203,0.5273437475 0.527344,0.5273437475 h 0.410156 c 0.410156,0 0.527344,-0.1406249975 0.527344,-0.5273437475 z m -1.488281,1.7695312 c 0,1.01953129 -1.042969,1.01953129 -1.078125,1.01953129 -0.457032,0 -0.75,-0.39843749 -0.75,-0.80859379 0,-1.078125 1.511718,-1.1484375 1.828125,-1.1601562 z m 3.940429,-0.8320312 c 0,-1.0429688 0.867188,-1.4648438 1.558594,-1.5117188 0.199219,-0.011719 0.222656,-0.011719 0.222656,-0.2929687 v -0.515625 c 0,-0.2226563 0,-0.3046875 -0.199218,-0.3046875 -0.304688,0 -1.101563,0.1171875 -1.617188,1.3007812 h -0.01172 v -0.7148437 c 0,-0.3515625 -0.08203,-0.5273438 -0.527343,-0.5273438 h -0.351563 c -0.398437,0 -0.527344,0.1171875 -0.527344,0.5273438 v 4.03124999 c 0,0.3984375 0.117188,0.5273437475 0.527344,0.5273437475 h 0.410156 c 0.410157,0 0.515625,-0.1406249975 0.515625,-0.5273437475 z m 3.070313,-5.0976563 c -0.351563,0 -0.527344,0.070312 -0.527344,0.5039063 v 0.5039062 c 0,0.3515625 0.117188,0.4921875 0.515625,0.4921875 h 0.574219 c 0.527344,0 0.527344,-0.2226562 0.527344,-0.7382812 0,-0.5273438 0,-0.7617188 -0.527344,-0.7617188 z m 1.007812,3.1289063 c 0,-0.3515625 -0.07031,-0.5273438 -0.515625,-0.5273438 h -0.410156 c -0.398437,0 -0.527344,0.1171875 -0.527344,0.5273438 v 3.96093749 c 0,0.3984375 0.117188,0.5273437475 0.527344,0.5273437475 h 0.410156 c 0.410157,0 0.515625,-0.1406249975 0.515625,-0.5273437475 z m 5.006841,2.9414062 c 0,-0.609375 -0.32813,-0.9960937 -0.527348,-1.171875 -0.433594,-0.3984375 -0.820313,-0.4570312 -1.277344,-0.5507812 -0.597656,-0.1054688 -1.042969,-0.1875 -1.042969,-0.6210938 0,-0.4453125 0.363281,-0.5390625 0.785156,-0.5390625 0.738282,0 1.136719,0.28125 1.417969,0.515625 0.105469,0.1171875 0.128906,0.1171875 0.175781,0.1171875 0.105465,0 0.128905,-0.1054687 0.140625,-0.1523437 0.0234,-0.082031 0.12891,-0.6914063 0.12891,-0.75 0,-0.1757813 -0.574222,-0.328125 -0.69141,-0.375 -0.445312,-0.1171875 -0.796875,-0.1289063 -1.078125,-0.1289063 -0.492187,0 -1.957031,0 -1.957031,1.5703125 0,0.5273438 0.234375,0.8554688 0.527344,1.125 0.386719,0.3515625 0.820312,0.421875 1.441406,0.5507813 0.316406,0.046875 0.878906,0.1523437 0.878906,0.6328125 0,0.51562499 -0.433593,0.58593749 -0.855468,0.58593749 -0.480469,0 -1.101563,-0.140625 -1.617188,-0.74999999 -0.04687,-0.058594 -0.08203,-0.09375 -0.152344,-0.09375 -0.105468,0 -0.128906,0.1054687 -0.140625,0.1640625 -0.02344,0.1523437 -0.152343,0.78515624 -0.152343,0.89062499 0,0.19921875 0.808593,0.4453125 0.820312,0.45703125 0.609375,0.1875 1.054688,0.1875 1.242188,0.1875 0.550781,0 1.933598,-0.03515625 1.933598,-1.66406254 z m 5.95019,-0.9140625 c 0,-1.8046875 -0.86719,-2.7421875 -2.66016,-2.7421875 -1.82812,0 -2.67187,0.9726563 -2.67187,2.7421875 0,1.78125004 0.9375,2.57812504 2.66016,2.57812504 1.72265,0 2.67187,-0.78515625 2.67187,-2.57812504 z m -2.66016,1.72265629 c -1.18359,0 -1.18359,-0.98437499 -1.18359,-1.86328129 0,-0.84375 0,-1.8164062 1.17188,-1.8164062 1.18359,0 1.18359,0.9609375 1.18359,1.8164062 0,0.8671875 0,1.86328129 -1.17188,1.86328129 z m 8.49024,-2.82421879 c 0,-1.125 -0.48047,-1.5820312 -1.59375,-1.5820312 -1.14844,0 -1.64063,0.84375 -1.78125,1.1367187 h -0.0117 v -0.5507812 c 0,-0.3515625 -0.082,-0.5273438 -0.52734,-0.5273438 h -0.375 c -0.39844,0 -0.52735,0.1171875 -0.52735,0.5273438 v 4.03124999 c 0,0.3984375 0.11719,0.5273437475 0.52735,0.5273437475 h 0.43359 c 0.42188,0 0.52734,-0.1406249975 0.52734,-0.5273437475 V -2.9541016 c 0,-0.9492187 0.63282,-1.3945312 1.20704,-1.3945312 0.52734,0 0.63281,0.2460937 0.63281,0.8085937 v 3.01171879 c 0,0.3515625 0.082,0.5273437475 0.52734,0.5273437475 h 0.44531 c 0.41016,0 0.51563,-0.1406249975 0.51563,-0.5273437475 z m 0,0"
       style="fill:#221f21;fill-opacity:1;fill-rule:nonzero;stroke:none"
       aria-label="ScalabilityComparison"
       transform="matrix(1.3333333,0,0,1.3333333,8,25.333333)" />
    <path
       id="path49"
       d="M 9.0585938,-6.5732422 H 8.3320313 l -0.9140626,3.0703125 c -0.1875,0.6210938 -0.65625,2.2265625 -0.7265625,2.77734376 0,0 -0.035156,-0.29296876 -0.3398437,-1.39453126 L 5.90625,-3.6552734 5.0390625,-6.5732422 h -0.796875 l -0.8085937,2.7070313 c -0.1875,0.6328125 -0.75,2.53125 -0.796875,3.11718746 L 2.625,-0.73730469 C 2.5429688,-1.3466797 2.0507813,-3.0810547 1.8164062,-3.8427734 L 1.0078125,-6.5732422 H 0.12890625 L 2.1210938,9.765625e-4 h 0.796875 L 3.8789063,-3.2451172 4.2890625,-4.6982422 c 0.2226562,-0.796875 0.2695312,-1.0898437 0.2695312,-1.1367187 h 0.011719 c 0.058594,0.5273437 0.5859375,2.2734375 0.7851562,2.9296875 L 6.2226562,9.765625e-4 H 7.078125 Z m 3.7734372,3.8320313 c 0,-0.9375 -0.691406,-1.6171875 -1.628906,-1.6171875 -0.621094,0 -1.066406,0.1523437 -1.5234375,0.4101562 l 0.058594,0.6679688 c 0.4687495,-0.3398438 0.9374995,-0.4921875 1.4531245,-0.4921875 0.527344,0 0.855469,0.4335937 0.855469,1.0429687 v 0.3984375 c -1.628906,0.035156 -2.6953123,0.46875 -2.6953123,1.2304688 0,0.44531246 0.2929688,1.20703121 1.1132813,1.20703121 0.1875,0 1.007812,-0.0234375 1.605469,-0.46875 V 9.765625e-4 h 0.761718 z m -0.785156,1.4179687 c 0,0.1992188 0,0.43359376 -0.339844,0.63281251 -0.234375,0.140625 -0.550781,0.17578125 -0.738281,0.17578125 -0.480469,0 -0.890625,-0.22265625 -0.890625,-0.59765626 0,-0.6796875 1.839844,-0.703125 1.96875,-0.703125 z m 3.084961,-5.25 H 14.370117 V 9.765625e-4 h 0.761719 z m 2.317383,0 H 16.6875 V 9.765625e-4 h 0.761719 z m 3.477539,4.7695313 v -0.5859375 h -2.589844 v 0.5859375 z m 2.252929,-1.8164063 h 1.371094 v -0.5859375 h -1.371094 v -1.1953125 h -0.703125 v 1.1953125 h -0.832031 v 0.5859375 h 0.808594 v 2.4257813 c 0,0.56249996 0.128906,1.30078121 0.820312,1.30078121 0.410157,0 0.902344,-0.08203125 1.429688,-0.3515625 l -0.152344,-0.59765625 c -0.246094,0.1875 -0.585937,0.3046875 -0.878906,0.3046875 -0.363281,0 -0.492188,-0.328125 -0.492188,-0.82031246 z m 3.407227,-2.859375 H 25.68457 v 0.9140625 h 0.902344 z m -0.07031,2.2734375 H 25.754883 V 9.765625e-4 h 0.761719 z m 7.731445,1.3945313 c 0,-0.703125 -0.1875,-1.5 -1.335938,-1.5 -0.796875,0 -1.242187,0.4921875 -1.464843,0.7851562 -0.07031,-0.1992187 -0.269532,-0.7851562 -1.230469,-0.7851562 -0.75,0 -1.207031,0.4453125 -1.417969,0.7265625 V -4.2646484 H 28.060547 V 9.765625e-4 h 0.796875 V -2.3076172 c 0,-0.6210937 0.246094,-1.3828125 0.960937,-1.3828125 0.949219,0 0.949219,0.6679688 0.949219,0.9492188 V 9.765625e-4 h 0.785156 V -2.3076172 c 0,-0.6210937 0.246094,-1.3828125 0.960938,-1.3828125 0.949219,0 0.949219,0.6679688 0.949219,0.9492188 V 9.765625e-4 h 0.785156 z m 4.816406,0.7382812 c 0,-0.2929687 -0.01172,-1.0078125 -0.375,-1.5820312 -0.398437,-0.5976563 -1.007812,-0.703125 -1.371094,-0.703125 -1.089843,0 -1.96875,1.0078125 -1.96875,2.2148437 0,1.25390626 0.925782,2.25000001 2.109375,2.25000001 0.457032,0 1.007813,-0.1171875 1.558594,-0.46875 L 38.95899,-1.0068359 c -0.597656,0.42187496 -1.148437,0.49218746 -1.488281,0.49218746 -0.785156,0 -1.394531,-0.69140626 -1.417969,-1.55859376 z m -2.953125,-0.5625 c 0.152344,-0.5976562 0.609375,-1.1132812 1.207031,-1.1132812 0.351563,0 0.996094,0.1640625 1.183594,1.1132812 z m 8.074219,-3.84375 h -0.902344 v 0.9140625 h 0.902344 z m -0.07031,2.2734375 H 43.353516 V 9.765625e-4 h 0.761718 z m 5.039063,1.3945313 c 0,-0.703125 -0.1875,-1.5 -1.335938,-1.5 -0.75,0 -1.207031,0.4453125 -1.417968,0.7265625 V -4.2646484 H 45.662109 V 9.765625e-4 h 0.796875 V -2.3076172 c 0,-0.6210937 0.246094,-1.3828125 0.960938,-1.3828125 0.949219,0 0.949219,0.6679688 0.949219,0.9492188 V 9.765625e-4 h 0.785156 z m 7.344726,-1.2539063 c -0.585937,-0.2578125 -1.019531,-0.2929687 -1.40625,-0.2929687 -0.222656,0 -1.617187,0 -1.617187,1.2421875 0,0.4570312 0.28125,0.7382812 0.386719,0.84375 0.351562,0.3164062 0.609375,0.3632812 1.242187,0.4804687 0.304688,0.058594 0.84375,0.1640625 0.84375,0.6445313 0,0.62109371 -0.761719,0.62109371 -0.890625,0.62109371 -0.550781,0 -1.089844,-0.1875 -1.5,-0.48046871 l -0.128906,0.69140621 c 0.574219,0.3046875 1.148437,0.421875 1.628906,0.421875 0.621094,0 1.605469,-0.19921875 1.605469,-1.32421871 0,-0.3398438 -0.128906,-0.6679688 -0.46875,-0.9492188 -0.316406,-0.2695312 -0.597656,-0.328125 -1.183594,-0.4453125 -0.351562,-0.070312 -0.820312,-0.1523437 -0.820312,-0.5976562 0,-0.5625 0.667968,-0.5625 0.820312,-0.5625 0.691406,0 1.089844,0.2226562 1.371094,0.375 z m 4.420899,1.9921875 c 0,-0.2929687 -0.01172,-1.0078125 -0.375,-1.5820312 -0.398438,-0.5976563 -1.007813,-0.703125 -1.371094,-0.703125 -1.089844,0 -1.96875,1.0078125 -1.96875,2.2148437 0,1.25390626 0.925781,2.25000001 2.109375,2.25000001 0.457031,0 1.007813,-0.1171875 1.558594,-0.46875 l -0.05859,-0.64453121 c -0.597656,0.42187496 -1.148437,0.49218746 -1.488281,0.49218746 -0.785156,0 -1.394531,-0.69140626 -1.417969,-1.55859376 z m -2.953125,-0.5625 c 0.152344,-0.5976562 0.609375,-1.1132812 1.207031,-1.1132812 0.351563,0 0.996094,0.1640625 1.183594,1.1132812 z m 7.21289,1.6171875 c -0.457031,0.30468751 -0.949218,0.48046876 -1.523437,0.48046876 -0.808594,0 -1.335938,-0.66796876 -1.335938,-1.57031246 0,-0.7265625 0.363282,-1.6171875 1.371094,-1.6171875 0.597656,0 0.902344,0.1171875 1.371094,0.4453125 l 0.128906,-0.6679688 c -0.527344,-0.3046875 -0.820312,-0.4101562 -1.5,-0.4101562 -1.347656,0 -2.15625,1.125 -2.15625,2.2617187 0,1.17187501 0.878906,2.20312501 2.109375,2.20312501 0.667969,0 1.171875,-0.19921875 1.59375,-0.45703125 z m 4.901368,-1.0664062 c 0,-1.2421875 -0.949219,-2.2734375 -2.144532,-2.2734375 -1.171875,0 -2.144531,1.0195312 -2.144531,2.2734375 0,1.25390621 0.996094,2.19140621 2.144531,2.19140621 1.171875,0 2.144532,-0.9609375 2.144532,-2.19140621 z m -2.132813,1.54687496 c -0.738281,0 -1.371094,-0.57421876 -1.371094,-1.64062496 0,-1.1015625 0.714844,-1.5703125 1.359375,-1.5703125 0.679688,0 1.359375,0.4804687 1.359375,1.5703125 0,1.1015625 -0.65625,1.64062496 -1.347656,1.64062496 z m 6.670899,-2.27343746 c 0,-0.703125 -0.1875,-1.5 -1.335938,-1.5 -0.75,0 -1.207031,0.4453125 -1.417969,0.7265625 V -4.2646484 H 71.126953 V 9.765625e-4 h 0.796875 V -2.3076172 c 0,-0.6210937 0.246094,-1.3828125 0.960938,-1.3828125 0.949218,0 0.949218,0.6679688 0.949218,0.9492188 V 9.765625e-4 h 0.785157 z m 4.992187,-3.7617188 h -0.75 v 2.7890625 c -0.539062,-0.4453125 -1.136719,-0.5273437 -1.441406,-0.5273437 -0.960938,0 -1.699219,0.9960937 -1.699219,2.2148437 0,1.21875001 0.726563,2.20312501 1.652344,2.20312501 0.292969,0 0.890625,-0.0703125 1.453125,-0.59765625 V 9.765625e-4 h 0.785156 z m -0.785156,5.2382813 c 0,0.1757812 0,0.1992187 -0.105469,0.328125 -0.257812,0.33984371 -0.574219,0.49218746 -0.914062,0.49218746 -0.621094,0 -1.300782,-0.4453125 -1.300782,-1.58203126 0,-1.2070312 0.808594,-1.59375 1.40625,-1.59375 0.433594,0 0.738282,0.2460938 0.914063,0.4921875 z m 4.910156,-2.7304688 c -0.585937,-0.2578125 -1.019531,-0.2929687 -1.40625,-0.2929687 -0.222656,0 -1.617187,0 -1.617187,1.2421875 0,0.4570312 0.28125,0.7382812 0.386718,0.84375 0.351563,0.3164062 0.609375,0.3632812 1.242188,0.4804687 0.304687,0.058594 0.84375,0.1640625 0.84375,0.6445313 0,0.62109371 -0.761719,0.62109371 -0.890625,0.62109371 -0.550781,0 -1.089844,-0.1875 -1.5,-0.48046871 l -0.128906,0.69140621 c 0.574218,0.3046875 1.148437,0.421875 1.628906,0.421875 0.621094,0 1.605469,-0.19921875 1.605469,-1.32421871 0,-0.3398438 -0.128907,-0.6679688 -0.46875,-0.9492188 -0.316407,-0.2695312 -0.597657,-0.328125 -1.183594,-0.4453125 -0.351563,-0.070312 -0.820313,-0.1523437 -0.820313,-0.5976562 0,-0.5625 0.667969,-0.5625 0.820313,-0.5625 0.691406,0 1.089844,0.2226562 1.371094,0.375 z m 5.358399,0.4453125 h 1.054687 V -4.2060547 H 89.05957 v -1.0898437 c 0,-0.6914063 0.621094,-0.7617188 0.890625,-0.7617188 0.08203,0 0.398438,0 0.785157,0.1640625 v -0.6796875 c -0.117188,-0.023437 -0.421875,-0.1054687 -0.785157,-0.1054687 -0.914062,0 -1.617187,0.6914062 -1.617187,1.640625 v 0.8320312 h -0.703125 v 0.5859375 h 0.703125 V 9.765625e-4 h 0.761719 z m 5.80664,1.5351563 c 0,-1.2421875 -0.949219,-2.2734375 -2.144531,-2.2734375 -1.171875,0 -2.144531,1.0195312 -2.144531,2.2734375 0,1.25390621 0.996093,2.19140621 2.144531,2.19140621 1.171875,0 2.144531,-0.9609375 2.144531,-2.19140621 z m -2.132812,1.54687496 c -0.738282,0 -1.371094,-0.57421876 -1.371094,-1.64062496 0,-1.1015625 0.714844,-1.5703125 1.359375,-1.5703125 0.679687,0 1.359375,0.4804687 1.359375,1.5703125 0,1.1015625 -0.65625,1.64062496 -1.347656,1.64062496 z m 3.694336,-1.47656246 c 0,-0.9960938 0.773437,-1.6054688 1.628906,-1.6054688 v -0.6914062 c -0.679688,0.011719 -1.300781,0.3515625 -1.6875,0.9140625 v -0.8671875 h -0.70313 V 9.765625e-4 h 0.761719 z m 6.624024,-4.4648438 h -0.90234 v 0.9140625 h 0.90234 z m -0.0703,2.2734375 H 102.2549 V 9.765625e-4 h 0.76172 z m 5.03613,1.3945313 c 0,-0.703125 -0.1875,-1.5 -1.33593,-1.5 -0.75,0 -1.20703,0.4453125 -1.41797,0.7265625 v -0.6796875 h -0.73828 V 9.765625e-4 h 0.79687 V -2.3076172 c 0,-0.6210937 0.2461,-1.3828125 0.96094,-1.3828125 0.94922,0 0.94922,0.6679688 0.94922,0.9492188 V 9.765625e-4 h 0.78515 z m 4.74903,1.7929687 c -0.45703,0.30468751 -0.94922,0.48046876 -1.52344,0.48046876 -0.80859,0 -1.33594,-0.66796876 -1.33594,-1.57031246 0,-0.7265625 0.36328,-1.6171875 1.3711,-1.6171875 0.59765,0 0.90234,0.1171875 1.37109,0.4453125 l 0.12891,-0.6679688 c -0.52735,-0.3046875 -0.82032,-0.4101562 -1.5,-0.4101562 -1.34766,0 -2.15625,1.125 -2.15625,2.2617187 0,1.17187501 0.8789,2.20312501 2.10937,2.20312501 0.66797,0 1.17188,-0.19921875 1.59375,-0.45703125 z m 1.87793,-0.9960937 c 0,-0.9960938 0.77344,-1.6054688 1.6289,-1.6054688 v -0.6914062 c -0.67968,0.011719 -1.30078,0.3515625 -1.6875,0.9140625 v -0.8671875 h -0.70312 V 9.765625e-4 h 0.76172 z m 5.81836,-0.058594 c 0,-0.2929687 -0.0117,-1.0078125 -0.375,-1.5820312 -0.39844,-0.5976563 -1.00782,-0.703125 -1.3711,-0.703125 -1.08984,0 -1.96875,1.0078125 -1.96875,2.2148437 0,1.25390626 0.92578,2.25000001 2.10938,2.25000001 0.45703,0 1.00781,-0.1171875 1.55859,-0.46875 l -0.0586,-0.64453121 c -0.59766,0.42187496 -1.14844,0.49218746 -1.48828,0.49218746 -0.78516,0 -1.39453,-0.69140626 -1.41797,-1.55859376 z m -2.95313,-0.5625 c 0.15235,-0.5976562 0.60938,-1.1132812 1.20703,-1.1132812 0.35157,0 0.9961,0.1640625 1.1836,1.1132812 z m 7.12793,-0.1054687 c 0,-0.9375 -0.6914,-1.6171875 -1.6289,-1.6171875 -0.6211,0 -1.06641,0.1523437 -1.52344,0.4101562 l 0.0586,0.6679688 c 0.46875,-0.3398438 0.9375,-0.4921875 1.45313,-0.4921875 0.52734,0 0.85547,0.4335937 0.85547,1.0429687 v 0.3984375 c -1.62891,0.035156 -2.69532,0.46875 -2.69532,1.2304688 0,0.44531246 0.29297,1.20703121 1.11328,1.20703121 0.1875,0 1.00782,-0.0234375 1.60547,-0.46875 V 9.765625e-4 h 0.76172 z m -0.78515,1.4179687 c 0,0.1992188 0,0.43359376 -0.33985,0.63281251 -0.23437,0.140625 -0.55078,0.17578125 -0.73828,0.17578125 -0.48047,0 -0.89062,-0.22265625 -0.89062,-0.59765626 0,-0.6796875 1.83984,-0.703125 1.96875,-0.703125 z m 4.88671,-2.7421875 c -0.58593,-0.2578125 -1.01953,-0.2929687 -1.40625,-0.2929687 -0.22265,0 -1.61718,0 -1.61718,1.2421875 0,0.4570312 0.28125,0.7382812 0.38672,0.84375 0.35156,0.3164062 0.60937,0.3632812 1.24218,0.4804687 0.30469,0.058594 0.84375,0.1640625 0.84375,0.6445313 0,0.62109371 -0.76172,0.62109371 -0.89062,0.62109371 -0.55078,0 -1.08985,-0.1875 -1.5,-0.48046871 l -0.12891,0.69140621 c 0.57422,0.3046875 1.14844,0.421875 1.62891,0.421875 0.62109,0 1.60547,-0.19921875 1.60547,-1.32421871 0,-0.3398438 -0.12891,-0.6679688 -0.46875,-0.9492188 -0.31641,-0.2695312 -0.59766,-0.328125 -1.1836,-0.4453125 -0.35156,-0.070312 -0.82031,-0.1523437 -0.82031,-0.5976562 0,-0.5625 0.66797,-0.5625 0.82031,-0.5625 0.69141,0 1.08985,0.2226562 1.3711,0.375 z m 1.98633,-2.4140625 h -0.90234 v 0.9140625 h 0.90234 z m -0.0703,2.2734375 h -0.76172 V 9.765625e-4 h 0.76172 z m 5.03613,1.3945313 c 0,-0.703125 -0.1875,-1.5 -1.33594,-1.5 -0.75,0 -1.20703,0.4453125 -1.41796,0.7265625 V -4.2646486 H 132.2344 V 9.765625e-4 h 0.79688 V -2.3076172 c 0,-0.6210937 0.24609,-1.3828125 0.96094,-1.3828125 0.94922,0 0.94922,0.6679688 0.94922,0.9492188 V 9.765625e-4 h 0.78515 z m 5.37012,-1.5 c -0.17578,0 -0.80859,0 -1.51172,0.3046875 -0.14062,-0.1054688 -0.49219,-0.3046875 -0.9375,-0.3046875 -0.86719,0 -1.55859,0.7148437 -1.55859,1.546875 0,0.234375 0.0586,0.5859375 0.3164,0.9609375 -0.17578,0.234375 -0.26953,0.515625 -0.26953,0.7851562 0,0.25781251 0.0937,0.52734376 0.23437,0.70312501 -0.49218,0.3164062525 -0.60937,0.7265625 -0.60937,0.984375 0,0.69140629 0.9375,1.27734379 2.15625,1.27734379 1.21875,0 2.15625,-0.5742188 2.15625,-1.27734379 0,-1.32421875 -1.57031,-1.3359375 -1.99219,-1.3359375 h -0.86718 c -0.11719,0 -0.55078,0 -0.55078,-0.49218751 0,-0.1992187 0.0351,-0.2460937 0.082,-0.328125 0.25781,0.1757813 0.58593,0.28125 0.90234,0.28125 0.87891,0 1.57031,-0.7148437 1.57031,-1.546875 0,-0.328125 -0.10547,-0.5859375 -0.24609,-0.84375 -0.0469,-0.046875 -0.0469,-0.058594 -0.0469,-0.070312 0,-0.046875 0.46875,-0.046875 0.58594,-0.046875 0.082,0 0.4336,0 0.70313,0.035156 z m -2.44922,2.53125 c -0.43359,0 -0.85547,-0.2695313 -0.85547,-0.9726563 0,-0.7734375 0.48047,-0.984375 0.85547,-0.984375 0.43359,0 0.86719,0.2695313 0.86719,0.9726563 0,0.7734375 -0.48047,0.984375 -0.86719,0.984375 z m 0.43359,1.82812496 c 0.19922,0 1.28907,0 1.28907,0.62109375 0,0.42187499 -0.69141,0.71484379 -1.44141,0.71484379 -0.73828,0 -1.46484,-0.2695313 -1.46484,-0.71484379 0,-0.0234375 0,-0.62109375 0.72656,-0.62109375 z m 7.05469,-6.62109376 h -0.76172 V 9.765625e-4 h 0.78516 V -0.44433594 c 0.12891,0.12890625 0.60937,0.55078125 1.3125,0.55078125 0.98437,0 1.79297,-0.9609375 1.79297,-2.21484371 0,-1.1484375 -0.6211,-2.203125 -1.54688,-2.203125 -0.25781,0 -0.9375,0.046875 -1.58203,0.5507812 z m 0.0234,3.4101563 c 0.14062,-0.1992188 0.48047,-0.5273438 1.01953,-0.5273438 0.57422,0 1.30078,0.3984375 1.30078,1.5820313 0,1.21874996 -0.80859,1.59374996 -1.39453,1.59374996 -0.59766,0 -0.87891,-0.49218746 -0.92578,-0.58593746 z m 7.34766,0.421875 c 0,-0.9375 -0.69141,-1.6171875 -1.62891,-1.6171875 -0.62109,0 -1.06641,0.1523437 -1.52344,0.4101562 l 0.0586,0.6679688 c 0.46875,-0.3398438 0.9375,-0.4921875 1.45312,-0.4921875 0.52734,0 0.85547,0.4335937 0.85547,1.0429687 v 0.3984375 c -1.62891,0.035156 -2.69531,0.46875 -2.69531,1.2304688 0,0.44531246 0.29297,1.20703121 1.11328,1.20703121 0.1875,0 1.00781,-0.0234375 1.60547,-0.46875 V 9.765625e-4 h 0.76172 z m -0.78516,1.4179687 c 0,0.1992188 0,0.43359376 -0.33984,0.63281251 -0.23438,0.140625 -0.55079,0.17578125 -0.73829,0.17578125 -0.48046,0 -0.89062,-0.22265625 -0.89062,-0.59765626 0,-0.6796875 1.83984,-0.703125 1.96875,-0.703125 z m 3.26074,-2.296875 h 1.3711 v -0.5859375 h -1.3711 v -1.1953125 h -0.70312 v 1.1953125 h -0.83203 v 0.5859375 h 0.80859 v 2.4257813 c 0,0.56249996 0.12891,1.30078121 0.82031,1.30078121 0.41016,0 0.90235,-0.08203125 1.42969,-0.3515625 l -0.15234,-0.59765625 c -0.2461,0.1875 -0.58594,0.3046875 -0.87891,0.3046875 -0.36328,0 -0.49219,-0.328125 -0.49219,-0.82031246 z m 5.7832,2.6015625 c -0.45703,0.30468751 -0.94921,0.48046876 -1.52343,0.48046876 -0.8086,0 -1.33594,-0.66796876 -1.33594,-1.57031246 0,-0.7265625 0.36328,-1.6171875 1.37109,-1.6171875 0.59766,0 0.90235,0.1171875 1.3711,0.4453125 l 0.1289,-0.6679688 c -0.52734,-0.3046875 -0.82031,-0.4101562 -1.5,-0.4101562 -1.34765,0 -2.15625,1.125 -2.15625,2.2617187 0,1.17187501 0.87891,2.20312501 2.10938,2.20312501 0.66797,0 1.17187,-0.19921875 1.59375,-0.45703125 z m 4.58497,-1.7929687 c 0,-0.703125 -0.1875,-1.5 -1.33594,-1.5 -0.53906,0 -1.05469,0.2578125 -1.39453,0.6914062 v -2.953125 H 162.8584 V 9.765625e-4 h 0.79687 V -2.3076172 c 0,-0.6210937 0.2461,-1.3828125 0.96094,-1.3828125 0.94922,0 0.94922,0.6679688 0.94922,0.9492188 V 9.765625e-4 h 0.78516 z m 7.34472,-1.2539063 c -0.58594,-0.2578125 -1.01953,-0.2929687 -1.40625,-0.2929687 -0.22265,0 -1.61719,0 -1.61719,1.2421875 0,0.4570312 0.28125,0.7382812 0.38672,0.84375 0.35157,0.3164062 0.60938,0.3632812 1.24219,0.4804687 0.30469,0.058594 0.84375,0.1640625 0.84375,0.6445313 0,0.62109371 -0.76172,0.62109371 -0.89062,0.62109371 -0.55079,0 -1.08985,-0.1875 -1.5,-0.48046871 l -0.12891,0.69140621 c 0.57422,0.3046875 1.14844,0.421875 1.62891,0.421875 0.62109,0 1.60546,-0.19921875 1.60546,-1.32421871 0,-0.3398438 -0.1289,-0.6679688 -0.46875,-0.9492188 -0.3164,-0.2695312 -0.59765,-0.328125 -1.1836,-0.4453125 -0.35156,-0.070312 -0.82031,-0.1523437 -0.82031,-0.5976562 0,-0.5625 0.66797,-0.5625 0.82031,-0.5625 0.69141,0 1.08985,0.2226562 1.3711,0.375 z m 1.98633,-2.4140625 h -0.90234 v 0.9140625 h 0.90234 z m -0.0703,2.2734375 h -0.76172 V 9.765625e-4 h 0.76172 z m 4.66113,0.3867188 v -0.3867188 h -3.46875 v 0.5976563 h 1.33594 c 0.10547,0 0.22265,-0.011719 0.33984,-0.011719 h 0.72656 l -2.54296,3.21093751 V 9.765625e-4 h 3.64453 V -0.62011719 h -1.41797 c -0.11719,0 -0.23438,0 -0.35156,0 h -0.78516 z m 4.38574,1.7460937 c 0,-0.2929687 -0.0117,-1.0078125 -0.375,-1.5820312 -0.39843,-0.5976563 -1.00781,-0.703125 -1.37109,-0.703125 -1.08984,0 -1.96875,1.0078125 -1.96875,2.2148437 0,1.25390626 0.92578,2.25000001 2.10937,2.25000001 0.45704,0 1.00782,-0.1171875 1.5586,-0.46875 l -0.0586,-0.64453121 c -0.59765,0.42187496 -1.14843,0.49218746 -1.48828,0.49218746 -0.78515,0 -1.39453,-0.69140626 -1.41797,-1.55859376 z m -2.95312,-0.5625 c 0.15234,-0.5976562 0.60937,-1.1132812 1.20703,-1.1132812 0.35156,0 0.99609,0.1640625 1.18359,1.1132812 z m 0,0"
       style="fill:#221f21;fill-opacity:1;fill-rule:nonzero;stroke:none"
       aria-label="Wall-timeinsecondsforincreasingbatchsize"
       transform="matrix(1.3333333,0,0,1.3333333,8,42.666667)" />
  </g>
</svg>
