<svg xmlns="http://www.w3.org/2000/svg" xmlns:xlink="http://www.w3.org/1999/xlink" style="width: 73.864ex; height: 15.146ex; vertical-align: -7.107ex; margin: 1px 0px;" viewBox="0 -3517.057146211778 31817.47689357404 6534.114292423556"><g stroke="black" fill="black" stroke-width="0" transform="matrix(1 0 0 -1 0 0)"><g transform="translate(167,0)"><g transform="translate(-15,0)"><g transform="translate(0,1747)"><use xlink:href="#MJCAL-4C" xmlns:xlink="http://www.w3.org/1999/xlink"/><use xlink:href="#MJMAIN-28" xmlns:xlink="http://www.w3.org/1999/xlink" x="695" y="0"/><use xlink:href="#MJMAINB-78" xmlns:xlink="http://www.w3.org/1999/xlink" x="1089" y="0"/><use xlink:href="#MJMAIN-2C" xmlns:xlink="http://www.w3.org/1999/xlink" x="1701" y="0"/><use xlink:href="#MJMAINB-75" xmlns:xlink="http://www.w3.org/1999/xlink" x="2150" y="0"/><use xlink:href="#MJMAIN-2C" xmlns:xlink="http://www.w3.org/1999/xlink" x="2794" y="0"/><use xlink:href="#MJMATHBI-3BC" xmlns:xlink="http://www.w3.org/1999/xlink" x="3244" y="0"/><use xlink:href="#MJMAIN-2C" xmlns:xlink="http://www.w3.org/1999/xlink" x="3957" y="0"/><use xlink:href="#MJMATHBI-3BD" xmlns:xlink="http://www.w3.org/1999/xlink" x="4407" y="0"/><use xlink:href="#MJMAIN-29" xmlns:xlink="http://www.w3.org/1999/xlink" x="5020" y="0"/><use xlink:href="#MJMAIN-3D" xmlns:xlink="http://www.w3.org/1999/xlink" x="5691" y="0"/></g></g><g transform="translate(7459,0)"><g transform="translate(0,1747)"><use xlink:href="#MJSZ2-2211" xmlns:xlink="http://www.w3.org/1999/xlink" x="46" y="0"/><g transform="translate(129,-1125)"><use transform="scale(0.7071067811865476)" xlink:href="#MJMATHI-6B" xmlns:xlink="http://www.w3.org/1999/xlink"/><use transform="scale(0.7071067811865476)" xlink:href="#MJMAIN-3D" xmlns:xlink="http://www.w3.org/1999/xlink" x="526" y="0"/><use transform="scale(0.7071067811865476)" xlink:href="#MJMAIN-30" xmlns:xlink="http://www.w3.org/1999/xlink" x="1309" y="0"/></g><g transform="translate(0,1160)"><use transform="scale(0.7071067811865476)" xlink:href="#MJMATHI-4E" xmlns:xlink="http://www.w3.org/1999/xlink"/><use transform="scale(0.7071067811865476)" xlink:href="#MJMAIN-2212" xmlns:xlink="http://www.w3.org/1999/xlink" x="893" y="0"/><use transform="scale(0.7071067811865476)" xlink:href="#MJMAIN-31" xmlns:xlink="http://www.w3.org/1999/xlink" x="1676" y="0"/></g><use xlink:href="#MJMAIN-2113" xmlns:xlink="http://www.w3.org/1999/xlink" x="1708" y="0"/><use xlink:href="#MJMAIN-28" xmlns:xlink="http://www.w3.org/1999/xlink" x="2130" y="0"/><g transform="translate(2524,0)"><use xlink:href="#MJMAINB-78" xmlns:xlink="http://www.w3.org/1999/xlink"/><use transform="scale(0.7071067811865476)" xlink:href="#MJMATHI-6B" xmlns:xlink="http://www.w3.org/1999/xlink" x="865" y="-217"/></g><use xlink:href="#MJMAIN-2C" xmlns:xlink="http://www.w3.org/1999/xlink" x="3608" y="0"/><g transform="translate(4058,0)"><use xlink:href="#MJMAINB-75" xmlns:xlink="http://www.w3.org/1999/xlink"/><use transform="scale(0.7071067811865476)" xlink:href="#MJMATHI-6B" xmlns:xlink="http://www.w3.org/1999/xlink" x="910" y="-217"/></g><use xlink:href="#MJMAIN-29" xmlns:xlink="http://www.w3.org/1999/xlink" x="5174" y="0"/><use xlink:href="#MJMAIN-2B" xmlns:xlink="http://www.w3.org/1999/xlink" x="5790" y="0"/><g transform="translate(6795,0)"><use xlink:href="#MJMAIN-2113" xmlns:xlink="http://www.w3.org/1999/xlink"/><use transform="scale(0.7071067811865476)" xlink:href="#MJMATHI-4E" xmlns:xlink="http://www.w3.org/1999/xlink" x="596" y="-213"/></g><use xlink:href="#MJMAIN-28" xmlns:xlink="http://www.w3.org/1999/xlink" x="7949" y="0"/><g transform="translate(8343,0)"><use xlink:href="#MJMAINB-78" xmlns:xlink="http://www.w3.org/1999/xlink"/><use transform="scale(0.7071067811865476)" xlink:href="#MJMATHI-4E" xmlns:xlink="http://www.w3.org/1999/xlink" x="865" y="-213"/></g><use xlink:href="#MJMAIN-29" xmlns:xlink="http://www.w3.org/1999/xlink" x="9686" y="0"/><use xlink:href="#MJMAIN-2B" xmlns:xlink="http://www.w3.org/1999/xlink" x="10302" y="0"/><g transform="translate(11308,0)"><use xlink:href="#MJSZ2-2211" xmlns:xlink="http://www.w3.org/1999/xlink" x="46" y="0"/><g transform="translate(129,-1125)"><use transform="scale(0.7071067811865476)" xlink:href="#MJMATHI-6B" xmlns:xlink="http://www.w3.org/1999/xlink"/><use transform="scale(0.7071067811865476)" xlink:href="#MJMAIN-3D" xmlns:xlink="http://www.w3.org/1999/xlink" x="526" y="0"/><use transform="scale(0.7071067811865476)" xlink:href="#MJMAIN-30" xmlns:xlink="http://www.w3.org/1999/xlink" x="1309" y="0"/></g><g transform="translate(0,1160)"><use transform="scale(0.7071067811865476)" xlink:href="#MJMATHI-4E" xmlns:xlink="http://www.w3.org/1999/xlink"/><use transform="scale(0.7071067811865476)" xlink:href="#MJMAIN-2212" xmlns:xlink="http://www.w3.org/1999/xlink" x="893" y="0"/><use transform="scale(0.7071067811865476)" xlink:href="#MJMAIN-31" xmlns:xlink="http://www.w3.org/1999/xlink" x="1676" y="0"/></g></g><g transform="translate(13017,0)"><use xlink:href="#MJMATHBI-3BC" xmlns:xlink="http://www.w3.org/1999/xlink"/><use transform="scale(0.7071067811865476)" xlink:href="#MJMATHI-54" xmlns:xlink="http://www.w3.org/1999/xlink" x="1008" y="497"/><g transform="translate(713,-334)"><use transform="scale(0.7071067811865476)" xlink:href="#MJMATHI-6B" xmlns:xlink="http://www.w3.org/1999/xlink"/><use transform="scale(0.7071067811865476)" xlink:href="#MJMAIN-2B" xmlns:xlink="http://www.w3.org/1999/xlink" x="526" y="0"/><use transform="scale(0.7071067811865476)" xlink:href="#MJMAIN-31" xmlns:xlink="http://www.w3.org/1999/xlink" x="1309" y="0"/></g></g><use xlink:href="#MJMAIN-28" xmlns:xlink="http://www.w3.org/1999/xlink" x="15112" y="0"/><use xlink:href="#MJMAINB-66" xmlns:xlink="http://www.w3.org/1999/xlink" x="15506" y="0"/><use xlink:href="#MJMAIN-28" xmlns:xlink="http://www.w3.org/1999/xlink" x="15964" y="0"/><g transform="translate(16358,0)"><use xlink:href="#MJMAINB-78" xmlns:xlink="http://www.w3.org/1999/xlink"/><use transform="scale(0.7071067811865476)" xlink:href="#MJMATHI-6B" xmlns:xlink="http://www.w3.org/1999/xlink" x="865" y="-217"/></g><use xlink:href="#MJMAIN-2C" xmlns:xlink="http://www.w3.org/1999/xlink" x="17442" y="0"/><g transform="translate(17892,0)"><use xlink:href="#MJMAINB-75" xmlns:xlink="http://www.w3.org/1999/xlink"/><use transform="scale(0.7071067811865476)" xlink:href="#MJMATHI-6B" xmlns:xlink="http://www.w3.org/1999/xlink" x="910" y="-217"/></g><use xlink:href="#MJMAIN-29" xmlns:xlink="http://www.w3.org/1999/xlink" x="19008" y="0"/><use xlink:href="#MJMAIN-2212" xmlns:xlink="http://www.w3.org/1999/xlink" x="19624" y="0"/><g transform="translate(20629,0)"><use xlink:href="#MJMAINB-78" xmlns:xlink="http://www.w3.org/1999/xlink"/><g transform="translate(612,-154)"><use transform="scale(0.7071067811865476)" xlink:href="#MJMATHI-6B" xmlns:xlink="http://www.w3.org/1999/xlink"/><use transform="scale(0.7071067811865476)" xlink:href="#MJMAIN-2B" xmlns:xlink="http://www.w3.org/1999/xlink" x="526" y="0"/><use transform="scale(0.7071067811865476)" xlink:href="#MJMAIN-31" xmlns:xlink="http://www.w3.org/1999/xlink" x="1309" y="0"/></g></g><use xlink:href="#MJMAIN-29" xmlns:xlink="http://www.w3.org/1999/xlink" x="22624" y="0"/><use xlink:href="#MJMAIN-2B" xmlns:xlink="http://www.w3.org/1999/xlink" x="23240" y="0"/></g><g transform="translate(0,-1751)"><use xlink:href="#MJMATHBI-3BC" xmlns:xlink="http://www.w3.org/1999/xlink"/><use transform="scale(0.7071067811865476)" xlink:href="#MJMATHI-54" xmlns:xlink="http://www.w3.org/1999/xlink" x="1008" y="497"/><use transform="scale(0.7071067811865476)" xlink:href="#MJMAIN-30" xmlns:xlink="http://www.w3.org/1999/xlink" x="1008" y="-444"/><use xlink:href="#MJMAIN-28" xmlns:xlink="http://www.w3.org/1999/xlink" x="1314" y="0"/><g transform="translate(1708,0)"><use xlink:href="#MJMAINB-78" xmlns:xlink="http://www.w3.org/1999/xlink"/><g transform="translate(612,-150)"><use transform="scale(0.7071067811865476)" xlink:href="#MJMATHI-69" xmlns:xlink="http://www.w3.org/1999/xlink"/><use transform="scale(0.7071067811865476)" xlink:href="#MJMATHI-6E" xmlns:xlink="http://www.w3.org/1999/xlink" x="350" y="0"/><use transform="scale(0.7071067811865476)" xlink:href="#MJMATHI-69" xmlns:xlink="http://www.w3.org/1999/xlink" x="955" y="0"/><use transform="scale(0.7071067811865476)" xlink:href="#MJMATHI-74" xmlns:xlink="http://www.w3.org/1999/xlink" x="1305" y="0"/></g></g><use xlink:href="#MJMAIN-2212" xmlns:xlink="http://www.w3.org/1999/xlink" x="3824" y="0"/><g transform="translate(4829,0)"><use xlink:href="#MJMAINB-78" xmlns:xlink="http://www.w3.org/1999/xlink"/><use transform="scale(0.7071067811865476)" xlink:href="#MJMAIN-30" xmlns:xlink="http://www.w3.org/1999/xlink" x="865" y="-213"/></g><use xlink:href="#MJMAIN-29" xmlns:xlink="http://www.w3.org/1999/xlink" x="5898" y="0"/><use xlink:href="#MJMAIN-2B" xmlns:xlink="http://www.w3.org/1999/xlink" x="6514" y="0"/><g transform="translate(7519,0)"><use xlink:href="#MJSZ2-2211" xmlns:xlink="http://www.w3.org/1999/xlink" x="46" y="0"/><g transform="translate(129,-1125)"><use transform="scale(0.7071067811865476)" xlink:href="#MJMATHI-6B" xmlns:xlink="http://www.w3.org/1999/xlink"/><use transform="scale(0.7071067811865476)" xlink:href="#MJMAIN-3D" xmlns:xlink="http://www.w3.org/1999/xlink" x="526" y="0"/><use transform="scale(0.7071067811865476)" xlink:href="#MJMAIN-30" xmlns:xlink="http://www.w3.org/1999/xlink" x="1309" y="0"/></g><g transform="translate(0,1160)"><use transform="scale(0.7071067811865476)" xlink:href="#MJMATHI-4E" xmlns:xlink="http://www.w3.org/1999/xlink"/><use transform="scale(0.7071067811865476)" xlink:href="#MJMAIN-2212" xmlns:xlink="http://www.w3.org/1999/xlink" x="893" y="0"/><use transform="scale(0.7071067811865476)" xlink:href="#MJMAIN-31" xmlns:xlink="http://www.w3.org/1999/xlink" x="1676" y="0"/></g></g><g transform="translate(9228,0)"><use xlink:href="#MJMATHBI-3BD" xmlns:xlink="http://www.w3.org/1999/xlink"/><use transform="scale(0.7071067811865476)" xlink:href="#MJMATHI-54" xmlns:xlink="http://www.w3.org/1999/xlink" x="880" y="497"/><use transform="scale(0.7071067811865476)" xlink:href="#MJMATHI-6B" xmlns:xlink="http://www.w3.org/1999/xlink" x="823" y="-472"/></g><use xlink:href="#MJMAINB-68" xmlns:xlink="http://www.w3.org/1999/xlink" x="10452" y="0"/><use xlink:href="#MJMAIN-28" xmlns:xlink="http://www.w3.org/1999/xlink" x="11096" y="0"/><g transform="translate(11490,0)"><use xlink:href="#MJMAINB-78" xmlns:xlink="http://www.w3.org/1999/xlink"/><use transform="scale(0.7071067811865476)" xlink:href="#MJMATHI-6B" xmlns:xlink="http://www.w3.org/1999/xlink" x="865" y="-217"/></g><use xlink:href="#MJMAIN-2C" xmlns:xlink="http://www.w3.org/1999/xlink" x="12574" y="0"/><g transform="translate(13024,0)"><use xlink:href="#MJMAINB-75" xmlns:xlink="http://www.w3.org/1999/xlink"/><use transform="scale(0.7071067811865476)" xlink:href="#MJMATHI-6B" xmlns:xlink="http://www.w3.org/1999/xlink" x="910" y="-217"/></g><use xlink:href="#MJMAIN-29" xmlns:xlink="http://www.w3.org/1999/xlink" x="14139" y="0"/></g></g></g></g><defs id="MathJax_SVG_glyphs"><path id="MJSZ2-2211" stroke-width="10" d="M60 948Q63 950 665 950H1267L1325 815Q1384 677 1388 669H1348L1341 683Q1320 724 1285 761Q1235 809 1174 838T1033 881T882 898T699 902H574H543H251L259 891Q722 258 724 252Q725 250 724 246Q721 243 460 -56L196 -356Q196 -357 407 -357Q459 -357 548 -357T676 -358Q812 -358 896 -353T1063 -332T1204 -283T1307 -196Q1328 -170 1348 -124H1388Q1388 -125 1381 -145T1356 -210T1325 -294L1267 -449L666 -450Q64 -450 61 -448Q55 -446 55 -439Q55 -437 57 -433L590 177Q590 178 557 222T452 366T322 544L56 909L55 924Q55 945 60 948Z"/><path id="MJMATHI-69" stroke-width="10" d="M184 600Q184 624 203 642T247 661Q265 661 277 649T290 619Q290 596 270 577T226 557Q211 557 198 567T184 600ZM21 287Q21 295 30 318T54 369T98 420T158 442Q197 442 223 419T250 357Q250 340 236 301T196 196T154 83Q149 61 149 51Q149 26 166 26Q175 26 185 29T208 43T235 78T260 137Q263 149 265 151T282 153Q302 153 302 143Q302 135 293 112T268 61T223 11T161 -11Q129 -11 102 10T74 74Q74 91 79 106T122 220Q160 321 166 341T173 380Q173 404 156 404H154Q124 404 99 371T61 287Q60 286 59 284T58 281T56 279T53 278T49 278T41 278H27Q21 284 21 287Z"/><path id="MJMAIN-3D" stroke-width="10" d="M56 347Q56 360 70 367H707Q722 359 722 347Q722 336 708 328L390 327H72Q56 332 56 347ZM56 153Q56 168 72 173H708Q722 163 722 153Q722 140 707 133H70Q56 140 56 153Z"/><path id="MJMAIN-30" stroke-width="10" d="M96 585Q152 666 249 666Q297 666 345 640T423 548Q460 465 460 320Q460 165 417 83Q397 41 362 16T301 -15T250 -22Q224 -22 198 -16T137 16T82 83Q39 165 39 320Q39 494 96 585ZM321 597Q291 629 250 629Q208 629 178 597Q153 571 145 525T137 333Q137 175 145 125T181 46Q209 16 250 16Q290 16 318 46Q347 76 354 130T362 333Q362 478 354 524T321 597Z"/><path id="MJMATHI-6E" stroke-width="10" d="M21 287Q22 293 24 303T36 341T56 388T89 425T135 442Q171 442 195 424T225 390T231 369Q231 367 232 367L243 378Q304 442 382 442Q436 442 469 415T503 336T465 179T427 52Q427 26 444 26Q450 26 453 27Q482 32 505 65T540 145Q542 153 560 153Q580 153 580 145Q580 144 576 130Q568 101 554 73T508 17T439 -10Q392 -10 371 17T350 73Q350 92 386 193T423 345Q423 404 379 404H374Q288 404 229 303L222 291L189 157Q156 26 151 16Q138 -11 108 -11Q95 -11 87 -5T76 7T74 17Q74 30 112 180T152 343Q153 348 153 366Q153 405 129 405Q91 405 66 305Q60 285 60 284Q58 278 41 278H27Q21 284 21 287Z"/><path id="MJMAIN-28" stroke-width="10" d="M94 250Q94 319 104 381T127 488T164 576T202 643T244 695T277 729T302 750H315H319Q333 750 333 741Q333 738 316 720T275 667T226 581T184 443T167 250T184 58T225 -81T274 -167T316 -220T333 -241Q333 -250 318 -250H315H302L274 -226Q180 -141 137 -14T94 250Z"/><path id="MJMAIN-2B" stroke-width="10" d="M56 237T56 250T70 270H369V420L370 570Q380 583 389 583Q402 583 409 568V270H707Q722 262 722 250T707 230H409V-68Q401 -82 391 -82H389H387Q375 -82 369 -68V230H70Q56 237 56 250Z"/><path id="MJMAIN-31" stroke-width="10" d="M213 578L200 573Q186 568 160 563T102 556H83V602H102Q149 604 189 617T245 641T273 663Q275 666 285 666Q294 666 302 660V361L303 61Q310 54 315 52T339 48T401 46H427V0H416Q395 3 257 3Q121 3 100 0H88V46H114Q136 46 152 46T177 47T193 50T201 52T207 57T213 61V578Z"/><path id="MJMAIN-29" stroke-width="10" d="M60 749L64 750Q69 750 74 750H86L114 726Q208 641 251 514T294 250Q294 182 284 119T261 12T224 -76T186 -143T145 -194T113 -227T90 -246Q87 -249 86 -250H74Q66 -250 63 -250T58 -247T55 -238Q56 -237 66 -225Q221 -64 221 250T66 725Q56 737 55 738Q55 746 60 749Z"/><path id="MJMAIN-32" stroke-width="10" d="M109 429Q82 429 66 447T50 491Q50 562 103 614T235 666Q326 666 387 610T449 465Q449 422 429 383T381 315T301 241Q265 210 201 149L142 93L218 92Q375 92 385 97Q392 99 409 186V189H449V186Q448 183 436 95T421 3V0H50V19V31Q50 38 56 46T86 81Q115 113 136 137Q145 147 170 174T204 211T233 244T261 278T284 308T305 340T320 369T333 401T340 431T343 464Q343 527 309 573T212 619Q179 619 154 602T119 569T109 550Q109 549 114 549Q132 549 151 535T170 489Q170 464 154 447T109 429Z"/><path id="MJMAIN-6D" stroke-width="10" d="M41 46H55Q94 46 102 60V68Q102 77 102 91T102 122T103 161T103 203Q103 234 103 269T102 328V351Q99 370 88 376T43 385H25V408Q25 431 27 431L37 432Q47 433 65 434T102 436Q119 437 138 438T167 441T178 442H181V402Q181 364 182 364T187 369T199 384T218 402T247 421T285 437Q305 442 336 442Q351 442 364 440T387 434T406 426T421 417T432 406T441 395T448 384T452 374T455 366L457 361L460 365Q463 369 466 373T475 384T488 397T503 410T523 422T546 432T572 439T603 442Q729 442 740 329Q741 322 741 190V104Q741 66 743 59T754 49Q775 46 803 46H819V0H811L788 1Q764 2 737 2T699 3Q596 3 587 0H579V46H595Q656 46 656 62Q657 64 657 200Q656 335 655 343Q649 371 635 385T611 402T585 404Q540 404 506 370Q479 343 472 315T464 232V168V108Q464 78 465 68T468 55T477 49Q498 46 526 46H542V0H534L510 1Q487 2 460 2T422 3Q319 3 310 0H302V46H318Q379 46 379 62Q380 64 380 200Q379 335 378 343Q372 371 358 385T334 402T308 404Q263 404 229 370Q202 343 195 315T187 232V168V108Q187 78 188 68T191 55T200 49Q221 46 249 46H265V0H257L234 1Q210 2 183 2T145 3Q42 3 33 0H25V46H41Z"/><path id="MJMAIN-69" stroke-width="10" d="M69 609Q69 637 87 653T131 669Q154 667 171 652T188 609Q188 579 171 564T129 549Q104 549 87 564T69 609ZM247 0Q232 3 143 3Q132 3 106 3T56 1L34 0H26V46H42Q70 46 91 49Q100 53 102 60T104 102V205V293Q104 345 102 359T88 378Q74 385 41 385H30V408Q30 431 32 431L42 432Q52 433 70 434T106 436Q123 437 142 438T171 441T182 442H185V62Q190 52 197 50T232 46H255V0H247Z"/><path id="MJMAIN-6E" stroke-width="10" d="M41 46H55Q94 46 102 60V68Q102 77 102 91T102 122T103 161T103 203Q103 234 103 269T102 328V351Q99 370 88 376T43 385H25V408Q25 431 27 431L37 432Q47 433 65 434T102 436Q119 437 138 438T167 441T178 442H181V402Q181 364 182 364T187 369T199 384T218 402T247 421T285 437Q305 442 336 442Q450 438 463 329Q464 322 464 190V104Q464 66 466 59T477 49Q498 46 526 46H542V0H534L510 1Q487 2 460 2T422 3Q319 3 310 0H302V46H318Q379 46 379 62Q380 64 380 200Q379 335 378 343Q372 371 358 385T334 402T308 404Q263 404 229 370Q202 343 195 315T187 232V168V108Q187 78 188 68T191 55T200 49Q221 46 249 46H265V0H257L234 1Q210 2 183 2T145 3Q42 3 33 0H25V46H41Z"/><path id="MJMAINB-78" stroke-width="10" d="M227 0Q212 3 121 3Q40 3 28 0H21V62H117L245 213L109 382H26V444H34Q49 441 143 441Q247 441 265 444H274V382H246L281 339Q315 297 316 297Q320 297 354 341L389 382H352V444H360Q375 441 466 441Q547 441 559 444H566V382H471L355 246L504 63L545 62H586V0H578Q563 3 469 3Q365 3 347 0H338V62H366Q366 63 326 112T285 163L198 63L217 62H235V0H227Z"/><path id="MJMATHI-6B" stroke-width="10" d="M121 647Q121 657 125 670T137 683Q138 683 209 688T282 694Q294 694 294 686Q294 679 244 477Q194 279 194 272Q213 282 223 291Q247 309 292 354T362 415Q402 442 438 442Q468 442 485 423T503 369Q503 344 496 327T477 302T456 291T438 288Q418 288 406 299T394 328Q394 353 410 369T442 390L458 393Q446 405 434 405H430Q398 402 367 380T294 316T228 255Q230 254 243 252T267 246T293 238T320 224T342 206T359 180T365 147Q365 130 360 106T354 66Q354 26 381 26Q429 26 459 145Q461 153 479 153H483Q499 153 499 144Q499 139 496 130Q455 -11 378 -11Q333 -11 305 15T277 90Q277 108 280 121T283 145Q283 167 269 183T234 206T200 217T182 220H180Q168 178 159 139T145 81T136 44T129 20T122 7T111 -2Q98 -11 83 -11Q66 -11 57 -1T48 16Q48 26 85 176T158 471L195 616Q196 629 188 632T149 637H144Q134 637 131 637T124 640T121 647Z"/><path id="MJMAIN-2C" stroke-width="10" d="M78 35T78 60T94 103T137 121Q165 121 187 96T210 8Q210 -27 201 -60T180 -117T154 -158T130 -185T117 -194Q113 -194 104 -185T95 -172Q95 -168 106 -156T131 -126T157 -76T173 -3V9L172 8Q170 7 167 6T161 3T152 1T140 0Q113 0 96 17Z"/><path id="MJMAINB-75" stroke-width="10" d="M40 442L134 446Q228 450 229 450H235V273V165Q235 90 238 74T254 52Q268 46 304 46H319Q352 46 380 67T419 121L420 123Q424 135 425 199Q425 201 425 207Q425 233 425 249V316Q425 354 423 363T410 376Q396 380 369 380H356V442L554 450V267Q554 84 556 79Q561 62 610 62H623V31Q623 0 622 0Q603 0 527 -3T432 -6Q431 -6 431 25V56L420 45Q373 6 332 -1Q313 -6 281 -6Q208 -6 165 14T109 87L107 98L106 230Q106 358 104 366Q96 380 50 380H37V442H40Z"/><path id="MJMAIN-2113" stroke-width="10" d="M345 104T349 104T361 95T369 80T352 59Q268 -20 206 -20Q170 -20 146 3T113 53T99 104L94 129Q94 130 79 116T48 86T28 70Q22 70 15 79T7 94Q7 98 12 103T58 147L91 179V185Q91 186 91 191T92 200Q92 282 128 400T223 612T336 705Q397 705 397 636V627Q397 453 194 233Q185 223 180 218T174 211T171 208T165 201L163 186Q159 142 159 123Q159 17 208 17Q228 17 253 30T293 56T335 94Q345 104 349 104ZM360 634Q360 655 354 661T336 668Q328 668 322 666T302 645T272 592Q252 547 229 467T192 330L179 273Q179 272 186 280T204 300T221 322Q327 453 355 590Q360 612 360 634Z"/><path id="MJMATHI-4E" stroke-width="10" d="M234 637Q231 637 226 637Q201 637 196 638T191 649Q191 676 202 682Q204 683 299 683Q376 683 387 683T401 677Q612 181 616 168L670 381Q723 592 723 606Q723 633 659 637Q635 637 635 648Q635 650 637 660Q641 676 643 679T653 683Q656 683 684 682T767 680Q817 680 843 681T873 682Q888 682 888 672Q888 650 880 642Q878 637 858 637Q787 633 769 597L620 7Q618 0 599 0Q585 0 582 2Q579 5 453 305L326 604L261 344Q196 88 196 79Q201 46 268 46H278Q284 41 284 38T282 19Q278 6 272 0H259Q228 2 151 2Q123 2 100 2T63 2T46 1Q31 1 31 10Q31 14 34 26T39 40Q41 46 62 46Q130 49 150 85Q154 91 221 362L289 634Q287 635 234 637Z"/><path id="MJMAIN-2212" stroke-width="10" d="M84 237T84 250T98 270H679Q694 262 694 250T679 230H98Q84 237 84 250Z"/><path id="MJMAIN-73" stroke-width="10" d="M295 316Q295 356 268 385T190 414Q154 414 128 401Q98 382 98 349Q97 344 98 336T114 312T157 287Q175 282 201 278T245 269T277 256Q294 248 310 236T342 195T359 133Q359 71 321 31T198 -10H190Q138 -10 94 26L86 19L77 10Q71 4 65 -1L54 -11H46H42Q39 -11 33 -5V74V132Q33 153 35 157T45 162H54Q66 162 70 158T75 146T82 119T101 77Q136 26 198 26Q295 26 295 104Q295 133 277 151Q257 175 194 187T111 210Q75 227 54 256T33 318Q33 357 50 384T93 424T143 442T187 447H198Q238 447 268 432L283 424L292 431Q302 440 314 448H322H326Q329 448 335 442V310L329 304H301Q295 310 295 316Z"/><path id="MJMAIN-2E" stroke-width="10" d="M78 60Q78 84 95 102T138 120Q162 120 180 104T199 61Q199 36 182 18T139 0T96 17T78 60Z"/><path id="MJMAIN-74" stroke-width="10" d="M27 422Q80 426 109 478T141 600V615H181V431H316V385H181V241Q182 116 182 100T189 68Q203 29 238 29Q282 29 292 100Q293 108 293 146V181H333V146V134Q333 57 291 17Q264 -10 221 -10Q187 -10 162 2T124 33T105 68T98 100Q97 107 97 248V385H18V422H27Z"/><path id="MJMAINB-66" stroke-width="10" d="M308 0Q290 3 172 3Q58 3 49 0H40V62H109V382H42V444H109V503L110 562L112 572Q127 625 178 658T316 699Q318 699 330 699T348 700Q381 698 404 687T436 658T449 629T452 606Q452 576 432 557T383 537Q355 537 335 555T314 605Q314 635 328 649H325Q311 649 293 644T253 618T227 560Q226 555 226 498V444H340V382H232V62H318V0H308Z"/><path id="MJMAIN-2026" stroke-width="10" d="M78 60Q78 84 95 102T138 120Q162 120 180 104T199 61Q199 36 182 18T139 0T96 17T78 60ZM525 60Q525 84 542 102T585 120Q609 120 627 104T646 61Q646 36 629 18T586 0T543 17T525 60ZM972 60Q972 84 989 102T1032 120Q1056 120 1074 104T1093 61Q1093 36 1076 18T1033 0T990 17T972 60Z"/><path id="MJMAINB-68" stroke-width="10" d="M40 686L131 690Q222 694 223 694H229V533L230 372L238 381Q248 394 264 407T317 435T398 450Q428 450 448 447T491 434T529 402T551 346Q553 335 554 198V62H623V0H614Q596 3 489 3Q374 3 365 0H356V62H425V194V275Q425 348 416 373T371 399Q326 399 288 370T238 290Q236 281 235 171V62H304V0H295Q277 3 171 3Q64 3 46 0H37V62H106V332Q106 387 106 453T107 534Q107 593 105 605T91 620Q77 624 50 624H37V686H40Z"/><path id="MJMAINB-30" stroke-width="10" d="M266 654H280H282Q500 654 524 418Q529 370 529 320Q529 125 456 52Q397 -10 287 -10Q110 -10 63 154Q45 212 45 316Q45 504 113 585Q140 618 185 636T266 654ZM374 548Q347 604 286 604Q247 604 218 575Q197 552 193 511T188 311Q188 159 196 116Q202 87 225 64T287 41Q339 41 367 87Q379 107 382 152T386 329Q386 518 374 548Z"/><path id="MJMAIN-3C" stroke-width="10" d="M694 -11T694 -19T688 -33T678 -40Q671 -40 524 29T234 166L90 235Q83 240 83 250Q83 261 91 266Q664 540 678 540Q681 540 687 534T694 519T687 505Q686 504 417 376L151 250L417 124Q686 -4 687 -5Q694 -11 694 -19Z"/><path id="MJMAIN-20" stroke-width="10"/><path id="MJMAIN-2264" stroke-width="10" d="M674 636Q682 636 688 630T694 615T687 601Q686 600 417 472L151 346L399 228Q687 92 691 87Q694 81 694 76Q694 58 676 56H670L382 192Q92 329 90 331Q83 336 83 348Q84 359 96 365Q104 369 382 500T665 634Q669 636 674 636ZM84 -118Q84 -108 99 -98H678Q694 -104 694 -118Q694 -130 679 -138H98Q84 -131 84 -118Z"/><path id="MJMAINB-67" stroke-width="10" d="M50 300Q50 368 105 409T255 450Q328 450 376 426L388 420Q435 455 489 455Q517 455 533 441T554 414T558 389Q558 367 544 353T508 339Q484 339 471 354T458 387Q458 397 462 400Q464 401 461 400Q459 400 454 399Q429 392 427 390Q454 353 459 328Q461 315 461 300Q461 240 419 202Q364 149 248 149Q185 149 136 172Q129 158 129 148Q129 105 170 93Q176 91 263 91Q273 91 298 91T334 91T366 89T400 85T432 77T466 64Q544 22 544 -69Q544 -114 506 -145Q438 -201 287 -201Q149 -201 90 -161T30 -70Q30 -58 33 -47T42 -27T54 -13T69 -1T82 6T94 12T101 15Q66 57 66 106Q66 151 90 187L97 197L89 204Q50 243 50 300ZM485 403H492Q491 404 488 404L485 403V403ZM255 200Q279 200 295 206T319 219T331 242T335 268T336 300Q336 337 333 352T317 380Q298 399 255 399Q228 399 211 392T187 371T178 345T176 312V300V289Q176 235 194 219Q215 200 255 200ZM287 -150Q357 -150 400 -128T443 -71Q443 -65 442 -61T436 -50T420 -37T389 -27T339 -21L308 -20Q276 -20 253 -20Q190 -20 180 -20T156 -26Q130 -38 130 -69Q130 -105 173 -127T287 -150Z"/><path id="MJMAINB-4D" stroke-width="10" d="M314 0Q296 3 181 3T48 0H39V62H147V624H39V686H305Q316 679 323 667Q330 653 434 414L546 157L658 414Q766 662 773 674Q778 681 788 686H1052V624H944V62H1052V0H1040Q1016 3 874 3T708 0H696V62H804V341L803 618L786 580Q770 543 735 462T671 315Q540 13 536 9Q528 1 507 1Q485 1 477 9Q472 14 408 162T281 457T217 603Q215 603 215 334V62H323V0H314Z"/><path id="MJMAINB-71" stroke-width="10" d="M38 220Q38 273 54 314T95 380T152 421T211 443T264 449Q368 449 429 386L438 377L484 450H540V-132H609V-194H600Q582 -191 475 -191Q360 -191 351 -194H342V-132H411V42Q409 41 399 34T383 25T367 16T347 7T324 1T296 -4T264 -6Q162 -6 100 56T38 220ZM287 46Q368 46 417 127V301L412 312Q398 347 369 371T302 395Q282 395 263 388T225 362T194 308T182 221Q182 126 214 86T287 46Z"/><path id="MJMAIN-A8" stroke-width="10" d="M95 612Q95 633 112 651T153 669T193 652T210 612Q210 588 194 571T152 554L127 560Q95 577 95 612ZM289 611Q289 634 304 649T335 668Q336 668 340 668T346 669Q369 669 386 652T404 612T387 572T346 554Q323 554 306 570T289 611Z"/><path id="MJMAINB-43" stroke-width="10" d="M64 343Q64 502 174 599T468 697Q502 697 533 691T586 674T623 655T647 639T657 632L694 663Q703 670 711 677T723 687T730 692T735 695T740 696T746 697Q759 697 762 692T766 668V627V489V449Q766 428 762 424T742 419H732H720Q699 419 697 436Q690 498 657 545Q611 618 532 632Q522 634 496 634Q356 634 286 553Q232 488 232 343T286 133Q355 52 497 52Q597 52 650 112T704 237Q704 248 709 251T729 254H735Q750 254 755 253T763 248T766 234Q766 136 680 63T469 -11Q285 -11 175 86T64 343Z"/><path id="MJMAIN-2D9" stroke-width="10" d="M190 609Q190 637 208 653T252 669Q275 667 292 652T309 609Q309 579 292 564T250 549Q225 549 208 564T190 609Z"/><path id="MJMAINB-53" stroke-width="10" d="M64 493Q64 582 120 636T264 696H272Q280 697 285 697Q380 697 454 645L480 669Q484 672 488 676T495 683T500 688T504 691T508 693T511 695T514 696T517 697T522 697Q536 697 539 691T542 652V577Q542 557 542 532T543 500Q543 472 540 465T524 458H511H505Q489 458 485 461T479 478Q472 529 449 564T393 614T336 634T287 639Q228 639 203 610T177 544Q177 517 195 493T247 457Q253 454 343 436T475 391Q574 326 574 207V200Q574 163 559 120Q517 12 389 -9Q380 -10 346 -10Q308 -10 275 -5T221 7T184 22T160 35T151 40L126 17Q122 14 118 10T111 3T106 -2T102 -5T98 -7T95 -9T92 -10T89 -11T84 -11Q70 -11 67 -4T64 35V108Q64 128 64 153T63 185Q63 203 63 211T69 223T77 227T94 228H100Q118 228 122 225T126 205Q130 125 193 88T345 51Q408 51 434 82T460 157Q460 196 439 221T388 257Q384 259 305 276T221 295Q155 313 110 366T64 493Z"/><path id="MJMATHBI-3C4" stroke-width="10" d="M55 289H43Q23 289 23 303Q23 308 33 322Q116 434 199 443Q200 444 386 444Q571 444 577 442Q588 441 599 432T610 402Q610 359 572 340Q561 335 547 334T452 333H353V331Q352 330 342 261T320 119T306 40Q300 18 281 3Q257 -13 233 -13Q210 -13 196 0T181 35Q181 44 182 48Q183 53 229 187T279 331Q279 333 228 333H209Q163 333 136 328T88 301L77 290L55 289Z"/><path id="MJMATHI-61" stroke-width="10" d="M33 157Q33 258 109 349T280 441Q331 441 370 392Q386 422 416 422Q429 422 439 414T449 394Q449 381 412 234T374 68Q374 43 381 35T402 26Q411 27 422 35Q443 55 463 131Q469 151 473 152Q475 153 483 153H487Q506 153 506 144Q506 138 501 117T481 63T449 13Q436 0 417 -8Q409 -10 393 -10Q359 -10 336 5T306 36L300 51Q299 52 296 50Q294 48 292 46Q233 -10 172 -10Q117 -10 75 30T33 157ZM351 328Q351 334 346 350T323 385T277 405Q242 405 210 374T160 293Q131 214 119 129Q119 126 119 118T118 106Q118 61 136 44T179 26Q217 26 254 59T298 110Q300 114 325 217T351 328Z"/><path id="MJMATHI-53" stroke-width="10" d="M308 24Q367 24 416 76T466 197Q466 260 414 284Q308 311 278 321T236 341Q176 383 176 462Q176 523 208 573T273 648Q302 673 343 688T407 704H418H425Q521 704 564 640Q565 640 577 653T603 682T623 704Q624 704 627 704T632 705Q645 705 645 698T617 577T585 459T569 456Q549 456 549 465Q549 471 550 475Q550 478 551 494T553 520Q553 554 544 579T526 616T501 641Q465 662 419 662Q362 662 313 616T263 510Q263 480 278 458T319 427Q323 425 389 408T456 390Q490 379 522 342T554 242Q554 216 546 186Q541 164 528 137T492 78T426 18T332 -20Q320 -22 298 -22Q199 -22 144 33L134 44L106 13Q83 -14 78 -18T65 -22Q52 -22 52 -14Q52 -11 110 221Q112 227 130 227H143Q149 221 149 216Q149 214 148 207T144 186T142 153Q144 114 160 87T203 47T255 29T308 24Z"/><path id="MJCAL-4C" stroke-width="10" d="M62 -22T47 -22T32 -11Q32 -1 56 24T83 55Q113 96 138 172T180 320T234 473T323 609Q364 649 419 677T531 705Q559 705 578 696T604 671T615 645T618 623V611Q618 582 615 571T598 548Q581 531 558 520T518 509Q503 509 503 520Q503 523 505 536T507 560Q507 590 494 610T452 630Q423 630 410 617Q367 578 333 492T271 301T233 170Q211 123 204 112L198 103L224 102Q281 102 369 79T509 52H523Q535 64 544 87T579 128Q616 152 641 152Q656 152 656 142Q656 101 588 40T433 -22Q381 -22 289 1T156 28L141 29L131 20Q111 0 87 -11Z"/><path id="MJMATHBI-3BC" stroke-width="10" d="M294 -8Q265 -8 244 -5T213 1T201 4Q200 4 192 -32T172 -111T155 -168Q134 -211 86 -211Q62 -211 48 -196T34 -158Q37 -144 103 123T174 404Q182 424 201 438T244 452Q271 452 284 436T298 404Q298 392 267 269T235 114Q235 43 305 43Q342 43 375 68T418 110Q420 112 455 253T492 397Q514 444 562 444Q587 444 601 429T615 397Q615 387 599 320T563 178T542 93Q540 81 540 72Q540 42 558 42Q580 42 596 75Q606 94 616 134Q621 155 624 158T646 162H651H662Q682 162 682 148Q681 142 679 132T665 94T641 47T602 9T548 -8Q523 -8 502 -3T468 11T446 27T432 40L429 46Q367 -8 294 -8Z"/><path id="MJMATHBI-3BD" stroke-width="10" d="M88 382Q70 382 65 385T59 402T64 427T78 443Q79 444 157 448T247 452Q256 452 261 448T266 440L267 437Q267 432 223 252L177 71L192 77Q293 117 371 199T480 388Q489 424 511 438T556 452Q579 452 593 438T608 402Q608 378 593 340T540 251T446 152T299 62T96 -1Q91 -2 78 -2Q38 -2 38 15Q38 22 82 198L127 379Q124 382 88 382Z"/><path id="MJMATHI-54" stroke-width="10" d="M40 437Q21 437 21 445Q21 450 37 501T71 602L88 651Q93 669 101 677H569H659Q691 677 697 676T704 667Q704 661 687 553T668 444Q668 437 649 437Q640 437 637 437T631 442L629 445Q629 451 635 490T641 551Q641 586 628 604T573 629Q568 630 515 631Q469 631 457 630T439 622Q438 621 368 343T298 60Q298 48 386 46Q418 46 427 45T436 36Q436 31 433 22Q429 4 424 1L422 0Q419 0 415 0Q410 0 363 1T228 2Q99 2 64 0H49Q43 6 43 9T45 27Q49 40 55 46H83H94Q174 46 189 55Q190 56 191 56Q196 59 201 76T241 233Q258 301 269 344Q339 619 339 625Q339 630 310 630H279Q212 630 191 624Q146 614 121 583T67 467Q60 445 57 441T43 437H40Z"/><path id="MJMATHI-74" stroke-width="10" d="M26 385Q19 392 19 395Q19 399 22 411T27 425Q29 430 36 430T87 431H140L159 511Q162 522 166 540T173 566T179 586T187 603T197 615T211 624T229 626Q247 625 254 615T261 596Q261 589 252 549T232 470L222 433Q222 431 272 431H323Q330 424 330 420Q330 398 317 385H210L174 240Q135 80 135 68Q135 26 162 26Q197 26 230 60T283 144Q285 150 288 151T303 153H307Q322 153 322 145Q322 142 319 133Q314 117 301 95T267 48T216 6T155 -11Q125 -11 98 4T59 56Q57 64 57 83V101L92 241Q127 382 128 383Q128 385 77 385H26Z"/><path id="MJMAINB-2C" stroke-width="10" d="M74 85Q74 120 97 145T159 171Q200 171 226 138Q258 101 258 37Q258 -5 246 -44T218 -109T183 -155T152 -184T135 -194Q129 -194 118 -183T106 -164Q106 -157 115 -149Q121 -145 130 -137T161 -100T195 -35Q197 -28 200 -17T204 3T205 11T199 9T183 3T159 0Q120 0 97 26T74 85Z"/><path id="MJMATHI-75" stroke-width="10" d="M21 287Q21 295 30 318T55 370T99 420T158 442Q204 442 227 417T250 358Q250 340 216 246T182 105Q182 62 196 45T238 27T291 44T328 78L339 95Q341 99 377 247Q407 367 413 387T427 416Q444 431 463 431Q480 431 488 421T496 402L420 84Q419 79 419 68Q419 43 426 35T447 26Q469 29 482 57T512 145Q514 153 532 153Q551 153 551 144Q550 139 549 130T540 98T523 55T498 17T462 -8Q454 -10 438 -10Q372 -10 347 46Q345 45 336 36T318 21T296 6T267 -6T233 -11Q189 -11 155 7Q103 38 103 113Q103 170 138 262T173 379Q173 380 173 381Q173 390 173 393T169 400T158 404H154Q131 404 112 385T82 344T65 302T57 280Q55 278 41 278H27Q21 284 21 287Z"/><path id="MJMAIN-2200" stroke-width="10" d="M0 673Q0 684 7 689T20 694Q32 694 38 680T82 567L126 451H430L473 566Q483 593 494 622T512 668T519 685Q524 694 538 694Q556 692 556 674Q556 670 426 329T293 -15Q288 -22 278 -22T263 -15Q260 -11 131 328T0 673ZM414 410Q414 411 278 411T142 410L278 55L414 410Z"/><path id="MJMAIN-2208" stroke-width="10" d="M84 250Q84 372 166 450T360 539Q361 539 377 539T419 540T469 540H568Q583 532 583 520Q583 511 570 501L466 500Q355 499 329 494Q280 482 242 458T183 409T147 354T129 306T124 272V270H568Q583 262 583 250T568 230H124V228Q124 207 134 177T167 112T231 48T328 7Q355 1 466 0H570Q583 -10 583 -20Q583 -32 568 -40H471Q464 -40 446 -40T417 -41Q262 -41 172 45Q84 127 84 250Z"/><path id="MJMAIN-7B" stroke-width="10" d="M434 -231Q434 -244 428 -250H410Q281 -250 230 -184Q225 -177 222 -172T217 -161T213 -148T211 -133T210 -111T209 -84T209 -47T209 0Q209 21 209 53Q208 142 204 153Q203 154 203 155Q189 191 153 211T82 231Q71 231 68 234T65 250T68 266T82 269Q116 269 152 289T203 345Q208 356 208 377T209 529V579Q209 634 215 656T244 698Q270 724 324 740Q361 748 377 749Q379 749 390 749T408 750H428Q434 744 434 732Q434 719 431 716Q429 713 415 713Q362 710 332 689T296 647Q291 634 291 499V417Q291 370 288 353T271 314Q240 271 184 255L170 250L184 245Q202 239 220 230T262 196T290 137Q291 131 291 1Q291 -134 296 -147Q306 -174 339 -192T415 -213Q429 -213 431 -216Q434 -219 434 -231Z"/><path id="MJMAIN-7D" stroke-width="10" d="M65 731Q65 745 68 747T88 750Q171 750 216 725T279 670Q288 649 289 635T291 501Q292 362 293 357Q306 312 345 291T417 269Q428 269 431 266T434 250T431 234T417 231Q380 231 345 210T298 157Q293 143 292 121T291 -28V-79Q291 -134 285 -156T256 -198Q202 -250 89 -250Q71 -250 68 -247T65 -230Q65 -224 65 -223T66 -218T69 -214T77 -213Q91 -213 108 -210T146 -200T183 -177T207 -139Q208 -134 209 3L210 139Q223 196 280 230Q315 247 330 250Q305 257 280 270Q225 304 212 352L210 362L209 498Q208 635 207 640Q195 680 154 696T77 713Q68 713 67 716T65 731Z"/><path id="MJMATHI-66" stroke-width="10" d="M118 -162Q120 -162 124 -164T135 -167T147 -168Q160 -168 171 -155T187 -126Q197 -99 221 27T267 267T289 382V385H242Q195 385 192 387Q188 390 188 397L195 425Q197 430 203 430T250 431Q298 431 298 432Q298 434 307 482T319 540Q356 705 465 705Q502 703 526 683T550 630Q550 594 529 578T487 561Q443 561 443 603Q443 622 454 636T478 657L487 662Q471 668 457 668Q445 668 434 658T419 630Q412 601 403 552T387 469T380 433Q380 431 435 431Q480 431 487 430T498 424Q499 420 496 407T491 391Q489 386 482 386T428 385H372L349 263Q301 15 282 -47Q255 -132 212 -173Q175 -205 139 -205Q107 -205 81 -186T55 -132Q55 -95 76 -78T118 -61Q162 -61 162 -103Q162 -122 151 -136T127 -157L118 -162Z"/><path id="MJMATHI-6F" stroke-width="10" d="M201 -11Q126 -11 80 38T34 156Q34 221 64 279T146 380Q222 441 301 441Q333 441 341 440Q354 437 367 433T402 417T438 387T464 338T476 268Q476 161 390 75T201 -11ZM121 120Q121 70 147 48T206 26Q250 26 289 58T351 142Q360 163 374 216T388 308Q388 352 370 375Q346 405 306 405Q243 405 195 347Q158 303 140 230T121 120Z"/><path id="MJMATHI-72" stroke-width="10" d="M21 287Q22 290 23 295T28 317T38 348T53 381T73 411T99 433T132 442Q161 442 183 430T214 408T225 388Q227 382 228 382T236 389Q284 441 347 441H350Q398 441 422 400Q430 381 430 363Q430 333 417 315T391 292T366 288Q346 288 334 299T322 328Q322 376 378 392Q356 405 342 405Q286 405 239 331Q229 315 224 298T190 165Q156 25 151 16Q138 -11 108 -11Q95 -11 87 -5T76 7T74 17Q74 30 114 189T154 366Q154 405 128 405Q107 405 92 377T68 316T57 280Q55 278 41 278H27Q21 284 21 287Z"/><path id="MJMATHI-6C" stroke-width="10" d="M117 59Q117 26 142 26Q179 26 205 131Q211 151 215 152Q217 153 225 153H229Q238 153 241 153T246 151T248 144Q247 138 245 128T234 90T214 43T183 6T137 -11Q101 -11 70 11T38 85Q38 97 39 102L104 360Q167 615 167 623Q167 626 166 628T162 632T157 634T149 635T141 636T132 637T122 637Q112 637 109 637T101 638T95 641T94 647Q94 649 96 661Q101 680 107 682T179 688Q194 689 213 690T243 693T254 694Q266 694 266 686Q266 675 193 386T118 83Q118 81 118 75T117 65V59Z"/><path id="MJMATHI-62" stroke-width="10" d="M73 647Q73 657 77 670T89 683Q90 683 161 688T234 694Q246 694 246 685T212 542Q204 508 195 472T180 418L176 399Q176 396 182 402Q231 442 283 442Q345 442 383 396T422 280Q422 169 343 79T173 -11Q123 -11 82 27T40 150V159Q40 180 48 217T97 414Q147 611 147 623T109 637Q104 637 101 637H96Q86 637 83 637T76 640T73 647ZM336 325V331Q336 405 275 405Q258 405 240 397T207 376T181 352T163 330L157 322L136 236Q114 150 114 114Q114 66 138 42Q154 26 178 26Q211 26 245 58Q270 81 285 114T318 219Q336 291 336 325Z"/><path id="MJMATHI-64" stroke-width="10" d="M366 683Q367 683 438 688T511 694Q523 694 523 686Q523 679 450 384T375 83T374 68Q374 26 402 26Q411 27 422 35Q443 55 463 131Q469 151 473 152Q475 153 483 153H487H491Q506 153 506 145Q506 140 503 129Q490 79 473 48T445 8T417 -8Q409 -10 393 -10Q359 -10 336 5T306 36L300 51Q299 52 296 50Q294 48 292 46Q233 -10 172 -10Q117 -10 75 30T33 157Q33 205 53 255T101 341Q148 398 195 420T280 442Q336 442 364 400Q369 394 369 396Q370 400 396 505T424 616Q424 629 417 632T378 637H357Q351 643 351 645T353 664Q358 683 366 683ZM352 326Q329 405 277 405Q242 405 210 374T160 293Q131 214 119 129Q119 126 119 118T118 106Q118 61 136 44T179 26Q233 26 290 98L298 109L352 326Z"/><path id="MJMATHI-73" stroke-width="10" d="M131 289Q131 321 147 354T203 415T300 442Q362 442 390 415T419 355Q419 323 402 308T364 292Q351 292 340 300T328 326Q328 342 337 354T354 372T367 378Q368 378 368 379Q368 382 361 388T336 399T297 405Q249 405 227 379T204 326Q204 301 223 291T278 274T330 259Q396 230 396 163Q396 135 385 107T352 51T289 7T195 -10Q118 -10 86 19T53 87Q53 126 74 143T118 160Q133 160 146 151T160 120Q160 94 142 76T111 58Q109 57 108 57T107 55Q108 52 115 47T146 34T201 27Q237 27 263 38T301 66T318 97T323 122Q323 150 302 164T254 181T195 196T148 231Q131 256 131 289Z"/><path id="MJMATHI-79" stroke-width="10" d="M21 287Q21 301 36 335T84 406T158 442Q199 442 224 419T250 355Q248 336 247 334Q247 331 231 288T198 191T182 105Q182 62 196 45T238 27Q261 27 281 38T312 61T339 94Q339 95 344 114T358 173T377 247Q415 397 419 404Q432 431 462 431Q475 431 483 424T494 412T496 403Q496 390 447 193T391 -23Q363 -106 294 -155T156 -205Q111 -205 77 -183T43 -117Q43 -95 50 -80T69 -58T89 -48T106 -45Q150 -45 150 -87Q150 -107 138 -122T115 -142T102 -147L99 -148Q101 -153 118 -160T152 -167H160Q177 -167 186 -165Q219 -156 247 -127T290 -65T313 -9T321 21L315 17Q309 13 296 6T270 -6Q250 -11 231 -11Q185 -11 150 11T104 82Q103 89 103 113Q103 170 138 262T173 379Q173 380 173 381Q173 390 173 393T169 400T158 404H154Q131 404 112 385T82 344T65 302T57 280Q55 278 41 278H27Q21 284 21 287Z"/><path id="MJMATHI-6D" stroke-width="10" d="M21 287Q22 293 24 303T36 341T56 388T88 425T132 442T175 435T205 417T221 395T229 376L231 369Q231 367 232 367L243 378Q303 442 384 442Q401 442 415 440T441 433T460 423T475 411T485 398T493 385T497 373T500 364T502 357L510 367Q573 442 659 442Q713 442 746 415T780 336Q780 285 742 178T704 50Q705 36 709 31T724 26Q752 26 776 56T815 138Q818 149 821 151T837 153Q857 153 857 145Q857 144 853 130Q845 101 831 73T785 17T716 -10Q669 -10 648 17T627 73Q627 92 663 193T700 345Q700 404 656 404H651Q565 404 506 303L499 291L466 157Q433 26 428 16Q415 -11 385 -11Q372 -11 364 -4T353 8T350 18Q350 29 384 161L420 307Q423 322 423 345Q423 404 379 404H374Q288 404 229 303L222 291L189 157Q156 26 151 16Q138 -11 108 -11Q95 -11 87 -5T76 7T74 17Q74 30 112 181Q151 335 151 342Q154 357 154 369Q154 405 129 405Q107 405 92 377T69 316T57 280Q55 278 41 278H27Q21 284 21 287Z"/><path id="MJMATHI-3BC" stroke-width="10" d="M58 -216Q44 -216 34 -208T23 -186Q23 -176 96 116T173 414Q186 442 219 442Q231 441 239 435T249 423T251 413Q251 401 220 279T187 142Q185 131 185 107V99Q185 26 252 26Q261 26 270 27T287 31T302 38T315 45T327 55T338 65T348 77T356 88T365 100L372 110L408 253Q444 395 448 404Q461 431 491 431Q504 431 512 424T523 412T525 402L449 84Q448 79 448 68Q448 43 455 35T476 26Q485 27 496 35Q517 55 537 131Q543 151 547 152Q549 153 557 153H561Q580 153 580 144Q580 138 575 117T555 63T523 13Q510 0 491 -8Q483 -10 467 -10Q446 -10 429 -4T402 11T385 29T376 44T374 51L368 45Q362 39 350 30T324 12T288 -4T246 -11Q199 -11 153 12L129 -85Q108 -167 104 -180T92 -202Q76 -216 58 -216Z"/></defs></svg>